<?xml version="1.0" encoding="UTF-8" standalone="no"?>
<svg
   width="388.38116"
   zoomAndPan="magnify"
   viewBox="0 0 291.28587 109.50907"
   height="146.0121"
   preserveAspectRatio="xMidYMid"
   version="1.0"
   id="svg638"
   sodipodi:docname="title-black.svg"
   inkscape:version="1.2.2 (732a01da63, 2022-12-09)"
   xmlns:inkscape="http://www.inkscape.org/namespaces/inkscape"
   xmlns:sodipodi="http://sodipodi.sourceforge.net/DTD/sodipodi-0.dtd"
   xmlns="http://www.w3.org/2000/svg"
   xmlns:svg="http://www.w3.org/2000/svg">
  <sodipodi:namedview
     id="namedview640"
     pagecolor="#ffffff"
     bordercolor="#000000"
     borderopacity="0.25"
     inkscape:showpageshadow="2"
     inkscape:pageopacity="0.0"
     inkscape:pagecheckerboard="0"
     inkscape:deskcolor="#d1d1d1"
     showgrid="false"
     inkscape:zoom="1.5282738"
     inkscape:cx="179.94158"
     inkscape:cy="157.03992"
     inkscape:window-width="2560"
     inkscape:window-height="1369"
     inkscape:window-x="-8"
     inkscape:window-y="-8"
     inkscape:window-maximized="1"
     inkscape:current-layer="svg638" />
  <defs
     id="defs324">
    <g
       id="g322" />
  </defs>
  <g
     fill="#000000"
     fill-opacity="1"
     id="g332"
     transform="translate(-45.048019,-16.419797)">
    <g
       transform="translate(44.809738,91.421975)"
       id="g330">
      <g
         id="g328">
        <path
           d="m 25.296875,-0.914062 c -0.148437,-1.433594 -0.597656,-2.421876 -0.882813,-5.152344 -0.496093,-4.78125 -0.167968,-17.511719 -1.941406,-19.949219 -0.339844,-0.585937 -0.988281,-0.863281 -1.671875,-0.789063 -0.476562,0.04688 -0.941406,0.234376 -1.320312,0.550782 -1.335938,1.105468 -2.355469,3.902344 -3.0625,5.703125 -3.820313,10.335937 -5.121094,23.648437 -7.027344,35.164062 l -1.125,5.085938 C 8.003906,20.488281 8.039062,20.828125 7.308594,21.113281 L 6.277344,17.839844 C 3.28125,6.972656 2.949219,-11.417969 3.34375,-21.535156 c 0.363281,-8.386719 0.746094,-13.324219 2.050781,-21.328125 0.265625,-1.410157 1.09375,-4.046875 -0.816406,-3.847657 -2.730469,0.285157 -3.964844,21.527344 -4.027344,22.914063 -0.171875,4.296875 -0.28125,8.519531 -0.3125,12.867187 L 0.996094,2.933594 C 1.460938,7.371094 3.628906,24.1875 7.585938,23.773438 8.953125,23.632812 9.292969,22.90625 9.792969,21.75 c 0.914062,-3.132812 1.632812,-6.175781 2.054687,-9.390625 0.738282,-4.152344 1.292969,-8.761719 1.9375,-13.175781 0.820313,-6.023438 2.835938,-17.132813 6.0625,-22.578125 0.414063,-0.664063 0.324219,-0.863281 1.121094,-1.152344 0.105469,1.023437 0.308594,1.625 0.363281,2.171875 l 0.402344,13.757812 c 0.109375,3.023438 0.898437,10.601563 3.835937,10.296876 3.617188,-0.378907 5.964844,-16.21875 6.804688,-19.414063 1.375,-4.695313 2,-8.625 3.730469,-13.84375 1.671875,-5.144531 2.609375,-8.070313 4.929687,-12.933594 0.839844,-1.882812 2.097656,-4.359375 3.78125,-5.433593 1.925782,3.25 0.417969,20.519531 0.199219,24.40625 -0.566406,9.101562 -0.554687,15.171874 -0.75,23.886718 l 1.132813,30.65625 c 0.152343,0.8125 0.195312,1.222656 0.382812,2.375 0.183594,1.085938 0.871094,1.703125 1.414062,1.648438 0.480469,-0.05078 0.898438,-0.644532 0.773438,-1.875 -0.265625,-2.527344 -0.660156,-5.660156 -0.710938,-8.136719 0.0625,-9.945313 -0.449218,-19.484375 0,-29.742187 l 1.289063,-28.632813 c 0.09766,-2.359375 1.335937,-17.597656 -3.988281,-17.042969 -4.777344,0.5 -10.648438,20.292969 -11.703125,24.0625 -2.003907,7.246094 -3.246094,13.863282 -5.132813,20.890625 -0.367187,1.765625 -1.273437,5.65625 -2.425781,6.535157 z m 0,0"
           id="path326" />
      </g>
    </g>
  </g>
  <g
     fill="#000000"
     fill-opacity="1"
     id="g340"
     transform="translate(-45.048019,-16.419797)">
    <g
       transform="translate(97.774729,85.893682)"
       id="g338">
      <g
         id="g336">
        <path
           d="m -0.71875,-6.894531 c 0.253906,2.457031 0.582031,3.597656 3.105469,3.332031 1.980469,-0.207031 3.429687,-6.84375 4.632812,-7.867188 0.304688,2.9375 2.859375,6.257813 6.273438,5.902344 1.160156,-0.121094 2.414062,-0.667968 3.679687,-1.765625 l 1.878906,-1.851562 c 3.132813,-3.707031 2.542969,-5.371094 1.519532,-5.265625 -0.410156,0.04297 -0.867188,0.296875 -1.15625,0.8125 -0.851563,1.121094 -0.992188,1.757812 -2.167969,3.054687 -1.34375,1.660157 -2.691406,2.628907 -3.988281,2.761719 C 11.625,-7.632812 10.28125,-8.59375 9.480469,-10.996094 8.59375,-13.523438 9.433594,-16.71875 7.042969,-16.46875 6.15625,-16.375 3.964844,-10.28125 2.820312,-8.023438 l -0.460937,0.875 c -0.296875,0.445313 -0.121094,0.152344 -0.304687,0.378907 -0.234376,-2.253907 0.449218,-4.945313 1.1875,-6.472657 1.621093,-3.621093 2.886718,-4.71875 3.910156,-4.824218 1.296875,-0.136719 2.28125,1.347656 3.238281,1.25 1.773437,-0.1875 -0.40625,-3.890625 -3.617187,-3.558594 -4.777344,0.5 -7.898438,9.589844 -7.492188,13.480469 z m 0,0"
           id="path334" />
      </g>
    </g>
  </g>
  <g
     fill="#000000"
     fill-opacity="1"
     id="g348"
     transform="translate(-45.048019,-16.419797)">
    <g
       transform="translate(118.31924,83.749321)"
       id="g346">
      <g
         id="g344">
        <path
           d="m 0.925781,-0.371094 c 2.117188,-0.222656 1.054688,-2.457031 1.28125,-4.277344 0.101563,-1.664062 0.574219,-3.09375 1.132813,-4.324218 0.910156,-1.890625 1.25,-1.925782 3.84375,-2.195313 0.75,-0.08203 1.78125,-0.117187 2.667968,-0.210937 1.367188,-0.144532 2.445313,-0.394532 2.34375,-1.347656 -0.08984,-0.890626 -2.222656,-0.804688 -4.203124,-0.597657 -1.160157,0.121094 -2.3125,0.308594 -2.925782,0.375 -2.117187,0.21875 -2.390625,1.558594 -3.34375,2.347657 -0.09375,-0.886719 0.050782,-0.832032 -0.046875,-1.789063 -0.074219,-0.679687 -0.160156,-1.5 -0.160156,-2.191406 0.00391,-1.929688 0.210937,-3.261719 -1.632813,-3.070313 -1.503906,0.15625 -0.898437,7.269532 -0.769531,8.5 0.246094,1.699219 0.355469,3.410156 0.597657,5.042969 0.046874,0.476563 -0.148438,3.878906 1.214843,3.738281 z m 0,0"
           id="path342" />
      </g>
    </g>
  </g>
  <g
     fill="#000000"
     fill-opacity="1"
     id="g356"
     transform="translate(-45.048019,-16.419797)">
    <g
       transform="translate(130.19554,82.509717)"
       id="g354">
      <g
         id="g352">
        <path
           d="m 5.695312,-0.316406 c 3.207032,-0.335938 5.488282,-3.609375 6.949219,-5.488282 0.976563,-1.207031 4.59375,-6.207031 4.460938,-7.503906 -0.06641,-0.613281 -0.292969,-0.796875 -0.5625,-0.769531 -1.300781,0.136719 -4.410157,5.359375 -4.648438,5.730469 -0.886719,1.402344 -4.058593,5.390625 -6.246093,5.617187 -1.84375,0.195313 -3.011719,-3.753906 -3.226563,-5.804687 -0.726563,-6.960938 1.683594,-10.316406 -1.457031,-9.988282 -1.367188,0.140626 -1.726563,3.285157 -1.78125,4.738282 -0.390625,3.558594 0.238281,8.257812 2.199218,11.15625 0.886719,1.21875 2.46875,2.503906 4.3125,2.3125 z m -5.015624,-26.875 c 0.160156,1.503906 1.117187,2.09375 2.074218,1.992187 1.363282,-0.140625 2.640625,-1.792969 1.078125,-4.183593 -0.484375,-0.707032 -0.992187,-0.929688 -1.46875,-0.882813 -1.027343,0.109375 -1.847656,1.503906 -1.683593,3.074219 z m 0,0"
           id="path350" />
      </g>
    </g>
  </g>
  <g
     fill="#000000"
     fill-opacity="1"
     id="g364"
     transform="translate(-45.048019,-16.419797)">
    <g
       transform="translate(146.50833,80.807047)"
       id="g362">
      <g
         id="g360">
        <path
           d="m 1.851562,-12.683594 c 0.296876,-1.757812 2.273438,-4.652344 4.082032,-5.1875 0.023437,2.207032 -2.46875,4.121094 -4.082032,5.1875 z m -2.902343,1.960938 c 0.199219,1.910156 0.308593,3.625 2.117187,5.089844 1.285156,1.039062 2.699219,1.375 4.132813,1.226562 4.164062,-0.433594 8.4375,-5.089844 10.699219,-7.878906 0.539062,-0.816406 0.53125,-0.882813 0.21875,-1.886719 -2.046876,0.214844 -0.925782,0.371094 -3.496094,2.847656 -0.445313,0.390625 -0.621094,0.6875 -1.125,1.152344 -1.257813,1.167969 -3.917969,3.445313 -6.304688,3.695313 C 4.371094,-6.390625 3.523438,-6.578125 2.84375,-7.128906 1.5625,-8.167969 1.585938,-9.273438 1.4375,-10.707031 c 2.101562,-0.359375 4.351562,-2.59375 5.316406,-3.9375 1.835938,-2.882813 1.550782,-5.613281 -1.453125,-5.300781 -3.277343,0.34375 -6.707031,5.808593 -6.351562,9.222656 z m 0,0"
           id="path358" />
      </g>
    </g>
  </g>
  <g
     fill="#000000"
     fill-opacity="1"
     id="g370"
     transform="translate(-45.048019,-16.419797)">
    <g
       transform="translate(162.07032,79.182743)"
       id="g368">
      <g
         id="g366" />
    </g>
  </g>
  <g
     fill="#000000"
     fill-opacity="1"
     id="g378"
     transform="translate(-45.048019,-16.419797)">
    <g
       transform="translate(180.49898,77.259227)"
       id="g376">
      <g
         id="g374">
        <path
           d="m 3.785156,-8.675781 c 0.328125,3.140625 1.085938,5.753906 4.007813,7.308593 1.457031,0.746094 2.867187,1.015626 4.300781,0.863282 3.273438,-0.339844 6.269531,-2.722656 8.734375,-4.914063 2.203125,-2.023437 2.714844,-3.042969 4.457031,-4.878906 l 2.671875,1.789063 c 1.425781,1.09375 7.808594,5.394531 8.628907,5.308593 1.636718,-0.167969 -1.71875,-2.578125 -1.9375,-2.695312 l -1.515626,-1.289063 c -1.085937,-1.128906 -5.300781,-4.484375 -6.304687,-4.863281 0.351563,-0.589844 1.207031,-1.644531 1.703125,-2.179687 0.367188,-0.453126 0.632812,-0.546876 0.992188,-1.070313 l 3.535156,-4.507813 c 0.234375,-0.371093 0.746094,-0.769531 0.6875,-1.3125 -0.03516,-0.34375 -0.335938,-0.585937 -0.675782,-0.550781 -0.480468,0.04687 -6.539062,7.445313 -7.621093,8.316407 l -4.273438,-3.28125 c -0.378906,-0.304688 -0.394531,-0.441407 -0.839843,-0.738282 -3.015626,-2.449218 -5.351563,-5.652344 -6.628907,-9.316406 0.632813,-0.546875 1.46875,-1.808594 2.078125,-2.5625 2.039063,-2.28125 4.304688,-4.382812 6.417969,-6.605469 l 2.414063,-2.664062 c 0.542968,-0.75 1.023437,-1.421875 0.933593,-2.308594 -0.09375,-0.886719 -0.75,-1.230469 -1.773437,-1.125 -3.074219,0.320313 -9.304688,4.765625 -11.332032,9.117187 -0.5,1.15625 -0.964843,2.65625 -0.972656,3.898438 -0.105468,1.667969 0.707032,0.824219 -1.292968,3.515625 -3.035157,3.972656 -6.863282,12.242187 -6.394532,16.746094 z m 8.339844,5.824219 -0.820312,0.085937 c -3.207032,0.332031 -5.070313,-2.300781 -5.425782,-5.714844 -0.542968,-5.1875 3.429688,-12.089843 6.3125,-16.183593 0.417969,2.023437 3.945313,6.695312 5.753906,8.160156 l 2.441407,2.230468 c 0.835937,0.742188 2.773437,2.125 3.398437,2.820313 -0.292968,0.511719 -1.789062,2.050781 -2.285156,2.585937 -2.242188,2.304688 -5.894531,5.652344 -9.375,6.015626 z m 1.511719,-27.140626 c 0.01953,-3.796874 5.957031,-9.039062 9.398437,-9.8125 -0.292968,0.511719 -0.109375,0.285157 -0.558594,0.609376 l -1.734374,1.90625 c -1.503907,1.46875 -3.324219,3.175781 -4.675782,4.765624 z m 0,0"
           id="path372" />
      </g>
    </g>
  </g>
  <g
     fill="#000000"
     fill-opacity="1"
     id="g384"
     transform="translate(-45.048019,-16.419797)">
    <g
       transform="translate(220.49579,73.084505)"
       id="g382">
      <g
         id="g380" />
    </g>
  </g>
  <g
     fill="#000000"
     fill-opacity="1"
     id="g392"
     transform="translate(-45.048019,-16.419797)">
    <g
       transform="translate(238.92445,71.160989)"
       id="g390">
      <g
         id="g388">
        <path
           d="M 0.804688,28.207031 C -3.5625,28.664062 -2.296875,21.632812 -1.453125,19.128906 -0.402344,15.980469 0.992188,12.800781 2.714844,10.136719 L 6.808594,4.394531 C 7.351562,3.648438 7.867188,3.320312 8.417969,2.640625 8.953125,1.824219 9.464844,1.425781 10.089844,0.808594 l 3.585937,-3.339844 c 0.707031,-0.488281 1.277344,-0.960938 1.917969,-1.441406 0.363281,3.480468 -3.359375,18.707031 -5.835938,22.757812 -1.1875,3.160156 -5.746093,9.089844 -8.953124,9.421875 z m -2.636719,-55.6875 c 0.253906,2.457031 0.695312,4.6875 1.8906248,6.21875 1.9765622,2.417969 3.7031252,2.445313 6.2968752,2.171875 0.890625,-0.08984 0.945312,-1.546875 -0.382813,-1.683594 -1.460937,-0.125 -1.839844,0.191407 -2.890625,-0.59375 -1.96875,-1.039062 -2.566406,-3.460937 -2.824219,-5.917968 -0.675781,-6.484375 2.863282,-14.859375 6.058594,-19.953125 1.648438,-2.726563 3.117188,-4.535157 4.480469,-4.675781 1.09375,-0.113282 2.167969,0.945312 3.152344,3.742187 1.621093,4.316406 1.394531,6.753906 1.804687,8.710937 0.238282,0.941407 0.398438,1.824219 0.519532,2.984376 l 0.457031,12.304687 c -0.05859,2.074219 0.01172,4.070313 -0.0039,5.933594 -0.03125,1.660156 -0.273437,10.585937 -0.808593,11.402343 l -3.71875,2.734376 c -4.046875,3.527343 -7.085938,6.8125 -10.070313,11.261718 -2.8125,4.160156 -7.011718,12.1875 -6.484375,17.238282 L -4.15625,26.3125 c 0.285156,2.730469 2.582031,4.214844 5.515625,3.90625 3.753906,-0.390625 7.820313,-5.09375 9.71875,-8.050781 4.996094,-8.320313 7.039063,-17.847657 8.253906,-27.359375 0.378907,-2.316406 0.574219,-1.785156 2.328125,-2.796875 2.003906,-1.3125 4.769532,-2.566407 7.019532,-3.492188 0.800781,-0.292969 7.085937,-2.878906 7.027343,-3.425781 -0.05078,-0.476562 -0.191406,-0.53125 -0.378906,-0.996094 -3.074219,0.320313 -5.355469,1.59375 -8.121094,2.851563 -1.308593,0.6875 -2.496093,1.226562 -3.613281,1.753906 -1.117188,0.53125 -2.699219,1.25 -3.664062,1.902344 l 0.351562,-6.523438 c 0.308594,-6.3125 0.605469,-39.8125 -9.085938,-38.800781 -4.574218,0.480469 -7.972656,7.597656 -9.640624,11.429688 -1.664063,3.898437 -3.964844,10.28125 -3.386719,15.808593 z m 0,0"
           id="path386" />
      </g>
    </g>
  </g>
  <g
     fill="#000000"
     fill-opacity="1"
     id="g400"
     transform="translate(-45.048019,-16.419797)">
    <g
       transform="translate(273.25619,67.577567)"
       id="g398">
      <g
         id="g396">
        <path
           d="m 5.695312,-0.316406 c 3.207032,-0.335938 5.488282,-3.609375 6.949219,-5.488282 0.976563,-1.207031 4.59375,-6.207031 4.460938,-7.503906 -0.06641,-0.613281 -0.292969,-0.796875 -0.5625,-0.769531 -1.300781,0.136719 -4.410157,5.359375 -4.648438,5.730469 -0.886719,1.402344 -4.058593,5.390625 -6.246093,5.617187 -1.84375,0.195313 -3.011719,-3.753906 -3.226563,-5.804687 -0.726563,-6.960938 1.683594,-10.316406 -1.457031,-9.988282 -1.367188,0.140626 -1.726563,3.285157 -1.78125,4.738282 -0.390625,3.558594 0.238281,8.257812 2.199218,11.15625 0.886719,1.21875 2.46875,2.503906 4.3125,2.3125 z m -5.015624,-26.875 c 0.160156,1.503906 1.117187,2.09375 2.074218,1.992187 1.363282,-0.140625 2.640625,-1.792969 1.078125,-4.183593 -0.484375,-0.707032 -0.992187,-0.929688 -1.46875,-0.882813 -1.027343,0.109375 -1.847656,1.503906 -1.683593,3.074219 z m 0,0"
           id="path394" />
      </g>
    </g>
  </g>
  <g
     fill="#000000"
     fill-opacity="1"
     id="g408"
     transform="translate(-45.048019,-16.419797)">
    <g
       transform="translate(289.56898,65.874897)"
       id="g406">
      <g
         id="g404">
        <path
           d="m 0.925781,-0.371094 c 2.117188,-0.222656 1.054688,-2.457031 1.28125,-4.277344 0.101563,-1.664062 0.574219,-3.09375 1.132813,-4.324218 0.910156,-1.890625 1.25,-1.925782 3.84375,-2.195313 0.75,-0.08203 1.78125,-0.117187 2.667968,-0.210937 1.367188,-0.144532 2.445313,-0.394532 2.34375,-1.347656 -0.08984,-0.890626 -2.222656,-0.804688 -4.203124,-0.597657 -1.160157,0.121094 -2.3125,0.308594 -2.925782,0.375 -2.117187,0.21875 -2.390625,1.558594 -3.34375,2.347657 -0.09375,-0.886719 0.050782,-0.832032 -0.046875,-1.789063 -0.074219,-0.679687 -0.160156,-1.5 -0.160156,-2.191406 0.00391,-1.929688 0.210937,-3.261719 -1.632813,-3.070313 -1.503906,0.15625 -0.898437,7.269532 -0.769531,8.5 0.246094,1.699219 0.355469,3.410156 0.597657,5.042969 0.046874,0.476563 -0.148438,3.878906 1.214843,3.738281 z m -3.875,-27.890625 c -0.105469,-1.023437 0.3125,-1.617187 1.269531,-1.71875 0.820313,-0.08594 3.472657,4.191407 4.132813,5.226563 0.421875,0.714844 0.703125,1.445312 1.300781,1.867187 0.0625,-0.699219 0.261719,-0.789062 0.484375,-1.292969 0.582031,-1.71875 0.683594,-3.382812 2.117188,-3.535156 1.023437,-0.105468 0.761719,1.371094 0.636719,2.144532 -0.238282,1.679687 -0.957032,6.03125 -3.210938,6.269531 -2.183594,0.226562 -3.109375,-2.023438 -4.089844,-3.507813 -0.738281,-1.097656 -2.519531,-4.292968 -2.640625,-5.453125 z m 0,0"
           id="path402" />
      </g>
    </g>
  </g>
  <g
     fill="#000000"
     fill-opacity="1"
     id="g416"
     transform="translate(-45.048019,-16.419797)">
    <g
       transform="translate(301.44528,64.635292)"
       id="g414">
      <g
         id="g412">
        <path
           d="m 5.695312,-0.316406 c 3.207032,-0.335938 5.488282,-3.609375 6.949219,-5.488282 0.976563,-1.207031 4.59375,-6.207031 4.460938,-7.503906 -0.06641,-0.613281 -0.292969,-0.796875 -0.5625,-0.769531 -1.300781,0.136719 -4.410157,5.359375 -4.648438,5.730469 -0.886719,1.402344 -4.058593,5.390625 -6.246093,5.617187 -1.84375,0.195313 -3.011719,-3.753906 -3.226563,-5.804687 -0.726563,-6.960938 1.683594,-10.316406 -1.457031,-9.988282 -1.367188,0.140626 -1.726563,3.285157 -1.78125,4.738282 -0.390625,3.558594 0.238281,8.257812 2.199218,11.15625 0.886719,1.21875 2.46875,2.503906 4.3125,2.3125 z M 5.199219,-28.214844 c 0.175781,1.707032 -1.785157,4.742188 -2.742188,6.152344 -0.304687,0.378906 -0.8125,1.464844 -1.628906,1.550781 -0.273437,0.02734 -0.554687,-0.01172 -0.8554688,-0.257812 -1.0507812,-0.785157 -0.1132812,-2.402344 0.3007818,-3.066407 1.097656,-2.046874 1.648437,-5.347656 3.695312,-5.5625 0.546875,-0.05469 1.171875,0.636719 1.230469,1.183594 z m 0,0"
           id="path410" />
      </g>
    </g>
  </g>
  <path
     fill="#000000"
     d="m 89.409011,40.498172 c -0.008,0.02344 -0.0195,0.04297 -0.0391,0.0625 0,-0.0078 -0.004,-0.01953 -0.0117,-0.01953 -0.0391,0.0039 0.0195,0.01953 -0.0898,0.132812 -0.0195,0.02344 -0.0469,-0.0039 -0.0273,-0.03125 0.0234,-0.03125 0.0664,-0.101562 0.0312,-0.08594 -0.0469,0.01953 0,0.07422 -0.17578,0.203126 -0.10156,0.07422 -0.10156,0.109374 -0.125,0.125 -0.0117,0.0039 -0.0156,-0.05469 0.0195,-0.07813 0.0703,-0.04687 -0.0312,-0.160156 -0.004,-0.05469 0.0156,0.05859 -0.0391,0 -0.0742,0.136719 -0.0195,0.07031 -0.0508,0.05859 -0.0664,0.136718 -0.0117,0.05078 -0.0195,0.05078 -0.0352,0.04688 -0.0195,0 -0.0156,-0.0078 -0.0156,-0.01953 0.0156,-0.128906 -0.33984,0.417969 -0.42969,0.429688 -0.043,0.0039 -0.043,0.03906 -0.082,0.08594 -0.0391,0.05078 -0.082,-0.01953 -0.10547,0.03906 -0.008,0.02344 -0.14062,0.07813 -0.27344,0.140625 -0.0469,0.02344 -0.0391,-0.02344 -0.11718,-0.0039 -0.69922,0.175782 -1.3125,-0.863281 -1.42188,-0.886718 -0.0703,-0.01953 -0.0898,0.0078 -0.0937,-0.02344 -0.008,-0.02734 0.0937,-0.03906 0.0469,-0.07031 -0.0703,-0.03906 -0.0586,-0.05469 -0.0664,-0.07031 0,-0.0039 -0.0156,0 -0.0117,0.0078 0.008,0.0039 0.0117,0.0078 0.0195,0.01563 -0.043,0.01563 -0.0625,0 -0.14843,-0.03516 -0.0312,-0.08203 -0.11719,-0.06641 -0.0859,-0.04687 0.0273,0.01953 0.0469,0.05469 0.0859,0.04687 -0.004,0.01563 -0.008,0.03125 -0.0195,0.03516 -0.11718,0.02734 -0.0469,-0.07422 -0.14062,-0.117188 -0.0117,-0.0039 -0.043,-0.08203 -0.043,-0.09766 0,-0.07422 0.0781,0.08203 0.0937,0.06641 0.0117,-0.01953 0.0312,-0.01563 0.043,-0.02344 0.008,-0.0078 0.004,-0.03906 -0.008,-0.03906 -0.0312,0 -0.0508,-0.01172 -0.0625,-0.03906 -0.0117,-0.01953 -0.0352,-0.01563 -0.0469,-0.03516 -0.0391,-0.05469 -0.0547,-0.0078 -0.0703,-0.05078 -0.0117,-0.02344 -0.0586,-0.109375 -0.0742,-0.06641 -0.0391,0.09766 -0.0391,-0.0039 -0.0391,-0.01172 0.004,-0.01563 0.0195,-0.02734 0.004,-0.04687 -0.0156,-0.02734 -0.0273,-0.05859 -0.0547,-0.07422 -0.10938,-0.05859 -0.004,0.02734 0.004,0.148438 0.004,0.0625 0.0547,0.07422 0.0117,0.08594 -0.0781,0.02344 -0.11719,-0.04297 -0.0781,-0.07031 0.0195,-0.01563 0.0234,-0.02344 0.008,-0.03906 -0.0352,-0.02734 -0.0391,-0.02734 -0.082,0 -0.008,0.0078 -0.0195,0.01172 -0.0234,0.0039 -0.0234,-0.05469 -0.0859,-0.07813 -0.10156,-0.140625 -0.004,0.0078 0.0312,0.0078 0.0469,-0.01172 0.008,-0.01172 0.0234,-0.0039 0.0195,0.0078 -0.0195,0.05469 0.0625,0.117187 0.0586,0.07422 0,-0.01953 0.0195,-0.02344 0.0195,-0.03516 0,-0.06641 -0.0664,-0.08984 -0.15234,-0.3125 -0.0312,-0.07422 -0.0859,-0.0625 -0.0937,-0.101562 -0.008,-0.02344 -0.008,-0.05078 -0.0234,-0.07422 -0.008,-0.0078 -0.0117,-0.01953 -0.0156,-0.03125 -0.0273,-0.05859 0.0898,0.121093 0.082,0.07422 -0.008,-0.0625 -0.0742,-0.125 -0.0781,-0.148438 -0.0117,-0.08203 -0.0547,-0.06641 -0.0742,-0.113281 -0.0312,-0.0625 -0.082,-0.07422 -0.0625,-0.08594 0.0508,-0.03516 0,-0.02734 -0.0234,-0.136719 -0.0312,-0.144531 -0.0937,-0.121093 -0.12109,-0.285156 -0.0117,-0.05469 -0.0703,-0.04297 -0.0586,-0.109375 0,-0.01172 -0.004,-0.05469 -0.0195,-0.06641 -0.0156,0.05078 -0.004,0.02344 -0.10156,-0.140625 -0.0352,-0.05859 -0.0664,0 -0.0703,-0.05859 -0.004,-0.05469 -0.0508,-0.02734 -0.043,-0.04297 0.0156,-0.03906 0.0156,-0.04297 -0.0156,-0.05078 -0.0273,-0.0039 -0.0234,-0.02344 -0.0234,-0.03516 -0.004,-0.01953 0.008,-0.0039 0.0156,-0.0039 0.0547,0.0078 -0.0117,-0.07031 -0.0273,-0.07813 -0.0156,-0.01172 0,-0.04687 -0.0234,-0.04687 -0.0234,-0.0039 -0.0156,0.01953 -0.0703,0.02344 -0.0625,0.0039 0.008,-0.07813 -0.0859,-0.109375 -0.0234,-0.0078 -0.004,-0.0078 -0.0352,-0.121094 -0.0195,-0.0625 -0.0937,-0.04297 -0.0742,-0.125 0.004,-0.01562 -0.0117,-0.03906 -0.0391,-0.02344 -0.004,0.0039 -0.0117,0.01172 -0.0156,0.01172 -0.0117,0 -0.008,-0.01172 -0.008,-0.01953 0.0273,-0.101562 -0.0937,-0.1875 -0.10157,-0.195312 -0.0508,-0.06641 0.0156,-0.0625 -0.0625,-0.148438 -0.0664,-0.07031 0.0273,-0.05859 0.0156,-0.117187 -0.008,-0.02734 -0.0156,-0.05469 0,-0.08594 0.004,-0.0078 0.004,-0.02344 0,-0.03125 -0.0117,-0.01563 -0.0195,0.01172 -0.0234,0.0039 -0.0234,-0.02734 -0.0508,-0.05469 -0.0781,-0.08203 -0.0352,-0.03125 0.0547,-0.05078 0.0586,-0.07812 0.004,-0.01953 -0.0234,-0.03906 -0.0273,-0.0625 -0.008,-0.0625 -0.0273,-0.121094 -0.0469,-0.183594 -0.004,-0.01172 0.0195,-0.03125 0.004,-0.03906 -0.0391,-0.0078 -0.0352,-0.03906 -0.008,-0.07031 0.0508,-0.05469 0.1289,-0.242188 0.0625,-0.28125 -0.0937,-0.05859 0.0156,-0.0039 0.0312,-0.09766 0.0195,-0.140624 0.12109,-0.117187 0.0586,-0.175781 -0.0547,-0.05078 0.0117,-0.03516 -0.0156,-0.07813 -0.0234,-0.03906 0.0469,-0.04297 0.008,-0.09766 -0.0391,-0.05469 -0.0664,-0.02734 -0.0664,-0.05859 0.004,-0.02344 0.0469,-0.01563 0.0508,-0.04297 0.004,-0.01953 0.0273,-0.03906 -0.004,-0.05859 -0.0508,-0.03125 0.125,-0.0078 0.0703,-0.08984 -0.0352,-0.05078 -0.0547,-0.01953 0.0547,-0.132812 0.0234,-0.01953 0.004,-0.01172 0.004,-0.07813 0,-0.02734 0.0117,-0.04687 0.0352,-0.01172 0.0117,0.01563 0.0273,0 0.0234,-0.0039 -0.0586,-0.113282 0.24609,-0.402344 0.12109,-0.339844 -0.12891,0.05859 -0.043,0.109375 -0.0859,0.09375 -0.0234,-0.0078 0.004,-0.02734 -0.0273,-0.05078 -0.008,-0.01172 0.008,-0.03125 -0.0195,-0.02734 -0.0391,0.0078 -0.0156,-0.01953 -0.0234,-0.04687 -0.0273,-0.09766 0.0781,-0.03906 0.0547,-0.132813 -0.0156,-0.05859 0.27734,-0.148437 0.30078,-0.242187 0.125,-0.08594 0.22265,-0.230469 0.19531,-0.109375 -0.0117,0.04687 0.14063,-0.08594 0.18359,-0.04297 0.0781,0.08203 0.28516,-0.195312 0.28907,-0.109375 0,0.03125 -0.0195,0.02344 -0.0859,0.05859 -0.0156,0.0078 -0.008,0.03906 0.008,0.03906 0.0781,-0.0078 0.10547,0.03125 0.21485,0.03125 0.33593,-0.01172 0.34375,0.117188 0.49218,0.04687 0.0508,-0.02344 0.14453,-0.01172 0.15235,0.03125 0.0117,0.07031 0.0508,0.04687 0.1875,0.175782 0.125,0.121093 0.21484,0.296874 0.21484,0.179687 0.16016,0.04687 0.75391,1.121094 0.35547,0.394531 -0.0547,-0.101562 0.0586,0 0.11328,0.105469 0.39453,0.78125 -0.16406,-0.226563 0.28516,0.53125 0.0234,0.03906 0.0781,0.01953 0.0508,0.04687 -0.0273,0.03516 -0.004,0.03906 0.0352,0.203125 0.0117,0.04297 0.14454,-0.183594 0.14454,-0.1875 0.0273,-0.113281 0.11718,-0.25 0.12109,-0.253906 0.0703,-0.01953 0.008,-0.109375 0.0703,-0.160157 0.0156,-0.0078 0.004,-0.03516 -0.0117,-0.01953 -0.0312,0.03516 -0.0742,0.06641 -0.12109,0.05469 -0.0508,-0.01172 0.0547,-0.04297 0.0859,-0.08594 0.0195,-0.03125 0.11328,-0.15625 0.13672,-0.167969 0.11718,-0.07422 0.19921,-0.253906 0.23437,-0.308593 0.0469,-0.06641 -0.0234,-0.101563 0.0312,-0.113281 0.0508,-0.01172 0.0469,-0.05469 0.0664,-0.05078 0.0703,0.01172 0.0859,-0.07813 0.14843,-0.132812 0.0312,-0.02344 -0.0664,-0.0039 -0.0469,-0.03516 0.0234,-0.03516 -0.004,-0.07813 0.0195,-0.109376 -0.043,-0.02734 0.008,-0.03516 0.0312,-0.03516 0.082,0.0078 0.0937,-0.05078 0.11719,-0.07031 -0.0117,-0.0078 0.0312,0.03516 0.0664,-0.01172 0.0234,-0.03516 -0.008,-0.03125 -0.0234,-0.03906 0.0273,-0.08984 0.10547,-0.0039 0.16797,-0.03906 0.0469,-0.02734 0.0156,-0.148438 0.14843,-0.167969 0.0664,-0.01172 0.0273,-0.07031 0.0977,-0.03906 0.043,0.01953 0.0312,-0.02734 0.0391,-0.03125 0.0469,-0.02344 0.1211,0 0.125,0.0039 0.0937,0.03906 0.19922,-0.07813 0.2461,-0.01172 0.008,0.01172 0.10937,-0.07422 0.22265,0.02734 0.082,0.07422 0.16797,0.222656 0.33594,0.191406 0.0195,-0.0039 0.0547,0.04687 0.0117,0.03125 -0.004,-0.0039 -0.0156,-0.01953 -0.0273,-0.01563 -0.0156,0.0078 0,0.02344 -0.004,0.03125 -0.008,0.01172 0,0.01563 0.008,0.01172 0.0391,-0.0078 0.0742,0.02344 0.11328,0 0.0352,-0.01953 -0.043,0.105469 0.0156,0.07031 0.0352,-0.02734 0.0859,-0.01172 0.125,-0.03516 0.0117,-0.0078 0.0273,0.0039 0.0391,0.01563 0.0234,0.01953 0.0664,0.0039 0.0742,0.04687 -0.0312,0.01172 -0.0547,-0.01563 -0.082,-0.01172 -0.0312,-0.02734 -0.0664,0.01172 -0.0977,-0.0039 -0.0352,0.06641 0.0391,0.02734 0.043,0.03906 0.0156,0.07031 0.0664,0.01953 0.0742,0.02344 0.26172,0.07031 0.0312,-0.15625 0.0898,-0.144531 0.0391,0.0078 0.0273,0.07031 0.10547,0.160156 0.0195,0.01953 -0.0117,0.05078 -0.004,0.05469 0.0195,0.0078 0.0625,0.01563 0.0469,-0.01563 -0.043,-0.07813 0.0742,0.0039 0.14453,0.01172 0.0391,0.0039 0,-0.05078 -0.0312,-0.117188 -0.004,-0.01172 0.0156,-0.01563 0.0195,-0.0078 0.12891,0.15625 0.0742,0.1875 0.11719,0.207031 0.004,0 0.004,0.01172 0,0.01172 -0.0117,0.01953 0.17187,0.394531 0.19141,0.320312 0.008,-0.03125 -0.0586,-0.199219 -0.0117,-0.152344 0.0156,0.01563 0,0.03906 0.0156,0.05469 0.0625,0.0625 0.004,0.179687 0.0273,0.222656 0.0391,0.06641 0.0195,0.101562 0.0352,0.167969 0.008,0.02344 -0.0273,0.01953 -0.0234,0.03906 0.0781,0.261719 0.0898,0.554688 0.0586,0.578125 0.0352,0.01563 -0.12891,-0.648437 -0.22266,-0.679687 -0.008,0 -0.004,-0.01563 0,-0.02344 0.0117,-0.01953 -0.0156,-0.03125 -0.0391,-0.02344 -0.0117,0.0078 0.004,0.02734 0.004,0.03906 0.0117,0.04297 -0.0781,0.0078 -0.0859,-0.03906 -0.0156,-0.113282 0,0.234375 0.0586,0.226562 0.0508,-0.0039 0.0352,0.05078 0.0391,0.09766 0,0.07422 0.0273,0.0039 0.0586,0.136719 0.0195,0.08984 -0.0742,0.08594 -0.0273,0.132813 0.0859,0.08203 -0.10156,0.316406 0.0156,0.261718 -0.008,-0.0039 -0.008,-0.0078 0.0117,0.05078 -0.0859,0.01563 -0.0312,0.0625 0,0 0.0352,-0.03516 0.0625,0.01172 0.0664,0.04297 0.0117,0.07422 -0.0156,0.125 -0.0312,0.210938 -0.0195,0.08984 0.0273,0.03516 0.0234,0.167969 -0.004,0.01563 -0.0195,0.03516 -0.004,0.04687 0.004,0.0078 0.0703,-0.01953 0.0508,0.0078 -0.0508,0.08984 -0.004,0.3125 -0.11719,0.335938 -0.0273,0.0078 -0.0273,0.08594 -0.0156,0.113281 0.0312,0.07422 -0.0156,0.136719 -0.008,0.179687 0.004,0.04297 -0.0117,0.234376 -0.0703,0.21875 -0.0117,0 -0.0234,-0.0078 -0.0391,-0.01562 0.0312,-0.01172 0.0273,-0.01172 0.0234,-0.04297 0.043,-0.01563 0.0117,-0.113281 -0.0234,0.04297 -0.0625,-0.01563 -0.0547,0.05469 -0.082,0.07812 -0.0937,-0.140624 0.0937,-0.04297 0.0977,-0.214843 0.004,-0.08594 -0.0352,-0.05469 -0.0469,-0.101563 -0.008,-0.03906 -0.0742,0.02344 -0.0547,0.06641 0.008,0.01563 -0.0312,0.01953 -0.0273,0.03906 0.0117,0.02734 0.0234,0 0.0352,0.06641 0.004,0.0078 -0.0117,0.0078 -0.0156,0.0039 -0.008,-0.0078 -0.0312,-0.0625 -0.0547,-0.02734 -0.0703,0.105468 -0.0391,0.15625 -0.082,0.132812 -0.0273,-0.01563 -0.0234,0.0039 -0.0352,0.05078 0.004,-0.01172 -0.0156,0.01953 -0.0156,0.02734 0.004,0.05078 -0.0234,0.101563 -0.0117,0.152344 0.0234,0.09375 -0.0703,0.07031 -0.082,0.09375 -0.0234,0.05078 -0.0391,0.101563 -0.0664,0.152344 -0.0117,0.01953 -0.0859,0.03516 -0.0391,0.08203 0.0156,0.01563 0.0156,0 0.008,0.02344 -0.0352,0.09766 -0.0117,0.07812 0.043,0.136718 0.0195,0.02344 -0.0117,0.03125 -0.0234,0.02344 -0.0312,-0.01563 -0.0352,-0.05859 -0.0664,-0.02344 -0.0156,0.01563 -0.0234,0.01563 0.0195,0.07422 0.0469,0.06641 -0.0117,0.171875 -0.0352,0.140625 -0.004,-0.0039 -0.0156,-0.03125 -0.0312,-0.0078 -0.004,0.0078 -0.0352,0.09766 -0.0547,0.03516 0.043,-0.05078 -0.0234,-0.08594 -0.0273,-0.05078 0,0.03906 0.0703,0.05859 -0.0195,0.08594 -0.0117,0.0039 -0.0156,0.01563 -0.004,0.02734 0.0195,0.02734 0.0586,0 0.0117,0.08203 -0.0664,0.117187 -0.0586,0.15625 -0.10937,0.226563 -0.0273,0.03906 0.0742,0.03516 0.082,-0.04297 0,-0.0039 0.0234,-0.03516 0.0195,0.04687 -0.0781,0.01953 -0.0625,0.183594 0,0 0.0156,0 0.0352,-0.0039 0.0234,0.01953 -0.0195,0.03906 -0.0273,0.08984 -0.0703,0.117187 -0.0312,0.01953 0.004,0.01953 -0.0469,0.09766 -0.0156,0.02344 -0.0156,0.03516 0.008,0.05078 0.0664,0.04297 0.0273,-0.101562 0.0937,-0.07813 0.0469,0.01953 0.0703,-0.148437 0.10156,-0.128906 0,0.0078 -0.0195,0.167969 -0.0586,0.1875 0.008,0.05469 -0.0586,0.08984 -0.0234,0.113281 0.0352,0.02344 0.008,0.05078 -0.0234,0.08984 -0.004,0.0039 -0.125,0.316406 -0.16796,0.316406 -0.0508,0 -0.0547,0.03125 -0.0508,0.07031 0.004,0.03516 -0.0234,0.05469 -0.0391,0.07813 -0.0117,0.01562 -0.0312,-0.02344 -0.043,0.0039 -0.0117,0.02344 0.0195,0.02734 0.0117,0.04687 -0.004,0.01563 -0.004,0.01563 -0.0234,0.04297 -0.0156,-0.05078 -0.0234,-0.03906 -0.0937,-0.05469 -0.0352,-0.0039 -0.0234,0.06641 0,0.05469 0.0312,-0.0078 0.0625,0.01172 0.0937,0 -0.0391,0.07031 -0.0664,0.02344 -0.0703,0.0625 -0.008,0.04297 -0.0859,0.06641 -0.0312,0.08203 -0.0195,0.05469 -0.0703,-0.03125 -0.0547,0.08594 0,0.02344 -0.0117,0.03125 -0.0273,0.03906 -0.004,-0.03125 -0.008,-0.07031 -0.0234,-0.04297 -0.0156,0.03125 -0.0469,0.02344 -0.0742,0.03125 0.12891,-0.28125 0.0664,-0.164062 0.0156,-0.15625 -0.0586,0.0078 -0.004,0.148438 -0.10156,0.160156 -0.0469,-0.105468 -0.21094,0.175782 0.0859,-0.0039 0.0312,0.03516 0.0508,0.02344 0.0977,0.01172 z m 0.41016,-1.472657 c 0.0312,-0.01172 0.0273,-0.03516 0.0195,-0.04297 -0.0117,-0.0039 -0.0312,0.01563 -0.0195,0.04297 -0.0156,-0.0039 -0.0273,-0.0078 -0.0391,-0.01172 0.0117,-0.02344 -0.0156,-0.04687 0,-0.07031 0.0156,-0.02734 -0.0625,-0.01563 -0.043,0 0.0195,0.01953 0.008,0.0625 0.043,0.07031 0.0156,0.03906 0.0156,0.03906 0.0391,0.01172 z m -0.13282,0.796876 c 0.0195,-0.0078 0.0312,-0.04297 0.0273,-0.0625 0,-0.01172 -0.0547,0.0039 -0.0273,0.0625 -0.0156,0.0078 -0.0312,0.01172 -0.0234,0.02344 0.008,0.01953 0.0195,-0.01563 0.0234,-0.02344 z m -4.4375,-0.398438 c -0.0234,-0.140625 -0.004,0.04297 0.043,0.05859 0.0156,0.0039 0.008,-0.01953 0.004,-0.04297 -0.0117,-0.117187 -0.0117,-0.03516 -0.0469,-0.01563 z m 5.26172,-3.257812 c 0.0156,0.03516 0.0195,0.05469 0.0312,0.01562 0.0117,-0.04297 -0.0117,-0.02734 -0.0312,-0.01562 -0.008,-0.03516 0.0547,-0.07031 0.0117,-0.09766 -0.004,0 -0.043,-0.105469 -0.0352,0.05469 0.004,0.01953 0.004,0.03906 0.0234,0.04297 z m 0.043,-0.863282 c -0.008,-0.03125 -0.043,-0.03125 -0.10547,-0.09375 -0.004,-0.0039 -0.0195,0.0078 -0.0156,0.01172 0.0352,0.03906 0.0625,0.08594 0.12109,0.08203 -0.0156,0.02734 -0.0156,0.02734 0.0195,0.04297 0.0156,0.01172 0.0937,0.140625 0.082,0.08594 -0.0273,-0.160156 -0.0781,-0.132812 -0.0547,-0.191406 0.004,-0.01563 -0.0352,-0.02344 -0.0391,0.0039 0,0.01953 0.008,0.03906 -0.008,0.05859 z m -0.0312,2.0625 c -0.0156,0.01172 0,0.03906 -0.0156,0.04687 -0.0273,0.0078 -0.0273,0.03125 -0.0312,0.04687 -0.008,0.03125 -0.0547,0.03516 -0.0586,0.0625 -0.0156,0.183594 -0.004,0.117188 0.0898,0.01563 0.0508,-0.05469 -0.0273,-0.04687 0.0156,-0.08594 0.0156,-0.01563 0.0273,0.0078 0.043,0.01172 0.0508,0 -0.008,0.0078 0.0195,0.07813 0.0117,0.03125 0.0781,0.05469 0.0586,-0.05469 -0.004,-0.02344 0.0234,-0.04687 0.008,-0.06641 -0.0195,-0.03125 -0.125,0.03125 -0.12891,-0.05469 0.0273,-0.01563 0.0273,-0.07813 0,-0.0625 -0.0391,0.01953 -0.0547,-0.01953 -0.0742,0 -0.0703,0.06641 -0.082,0.07031 -0.0664,0.07813 0.14843,0.05859 0.0547,-0.09375 0.14062,-0.01563 z m -3.54687,3.757813 c -0.0742,-0.08203 -0.0117,-0.07813 -0.082,-0.121094 -0.17188,-0.113281 -0.25,-0.121094 -0.25391,-0.148437 0,-0.05078 -0.10156,-0.05078 -0.0742,-0.0039 0.0625,0.113281 -0.0117,0.03125 -0.0234,0.05859 -0.008,0.01563 0.043,0.04687 0.0781,0.101563 0.11719,0.199218 0.23828,0.269531 0.34375,0.359374 0.043,0.03516 0.0508,-0.01172 0.0781,0.01953 0.0273,0.03516 0.13282,0.03125 0.10938,0.0078 -0.26953,-0.265625 0,-0.03516 0.0156,-0.04297 0.0195,-0.01172 -0.0586,-0.109376 -0.004,-0.101563 0.14843,0.01172 -0.0469,-0.101563 -0.1875,-0.128906 z m 0.88672,0.476562 c -0.39844,0.03906 -0.3711,0.03516 -0.375,0.07031 0,0.01172 -0.0469,0 -0.0391,0.01953 0.0117,0.02344 0.0508,-0.0039 0.0625,0.0078 0.082,0.09375 0.7461,-0.136719 0.35157,-0.09766 z m 1.5625,-1.636719 c 0.008,0.08594 0.0391,-0.02734 0.0937,-0.01562 0.043,0.0078 -0.004,-0.04688 0.0312,-0.07422 0.008,-0.0039 0.008,-0.01172 0,-0.01172 -0.0234,0 -0.0234,-0.03125 -0.043,-0.03906 -0.004,0 -0.0117,0.0078 -0.0117,0.0078 0.0391,0.05859 -0.11719,0 -0.0703,0.132812 z m -4.40625,-5.023437 c 0.10156,-0.01563 0.10546,-0.160156 -0.10157,-0.0078 -0.0234,0.01563 -0.008,0.04688 0.0234,0.03906 0.0391,-0.0078 0.0391,-0.03516 0.0781,-0.03125 z m 5.59765,2.15625 c -0.004,0 -0.008,0.0078 -0.008,0.01172 0.008,0.04687 -0.0312,0.09375 -0.0117,0.144531 0.004,0.01953 -0.0547,0.06641 -0.0156,0.101563 0.0352,0.03906 0.0859,-0.265626 0.0352,-0.257813 z m -2.95312,4.328125 c -0.082,0.01172 0.0312,0.02344 0.0547,0.04297 0.0273,0.02344 0.0937,0.01953 0.10157,-0.0039 0.004,-0.01562 -0.043,-0.01562 -0.0937,-0.03906 -0.0234,-0.01563 -0.043,-0.01563 -0.0625,0 z m 3.01172,-4.421875 c -0.0156,0.0039 0.0508,-0.0039 0.0273,-0.03906 -0.0195,-0.02734 -0.0391,-0.06641 -0.0586,-0.03516 -0.004,0.0039 -0.0391,0.113282 0.0312,0.07422 z m -3.09766,4.558594 c -0.0117,-0.01953 -0.21094,-0.109375 -0.0898,0.01172 0,0 0.0117,0 0.0156,0 0.043,-0.03516 0.0703,0.03516 0.0742,-0.01172 z m 2.83203,-6.390625 c -0.0352,-0.0078 -0.043,-0.03516 -0.0586,-0.05859 -0.004,-0.01172 -0.0469,-0.04297 -0.0508,-0.01172 -0.004,0.05469 -0.004,-0.0039 0.0781,0.101563 0.0195,0.02344 0.0391,-0.03125 0.0312,-0.03125 z m 0.16797,0.789062 c 0.0117,0.01953 0.0195,0.03906 0.0117,0.05859 -0.0195,0.03516 0.0117,0.05078 0.0195,0.07813 0.0352,0.07813 -0.0234,-0.296875 -0.0312,-0.136719 z m 0.24609,-0.316406 c -0.0234,-0.07031 -0.0195,-0.07031 -0.0273,-0.06641 -0.0469,0.01172 0.0664,0.238281 0.0273,0.06641 z m -1.15625,3.957031 c 0,0 -0.0117,0.0039 -0.0117,0.0039 0.008,0.07031 -0.0352,0.09766 -0.0195,0.109374 0.008,0.0078 0.0898,-0.03906 0.0312,-0.113281 z m -2.17968,-2.996093 c -0.0195,0.01172 -0.0664,0.02734 -0.0312,0.06641 0.0234,0.02734 0.0898,-0.09766 0.0312,-0.06641 z m 2.4375,2.125 c 0.0312,-0.0078 0.082,-0.06641 0.0547,-0.09375 -0.0156,-0.01953 -0.0195,0.03516 -0.0664,0.0625 -0.0195,0.0078 0,0.02344 0.0117,0.03125 z m 0.67578,-2.382813 c 0.0273,0.0078 0.0156,-0.04297 0.0117,-0.09766 -0.004,-0.03906 -0.0703,0.08594 -0.0117,0.09766 z m -0.28516,-1.035156 c -0.0547,-0.09375 -0.10156,0.01563 -0.043,0.02734 0.0234,0.0078 0.0508,0.0039 0.043,-0.02734 z m -5.44531,-0.300781 c -0.0508,-0.03906 -0.11719,0.08203 -0.0859,0.06641 0.0273,-0.0078 0.0859,-0.04687 0.0859,-0.06641 z m 5.3125,3.019531 c -0.0586,-0.07422 -0.0352,0.07031 -0.0273,0.07422 0.0273,0 0.0352,-0.05078 0.0273,-0.07422 z m -1.42578,-3.359375 c -0.14063,0.03516 -0.0273,0.04687 0.0117,0.02734 0.0898,-0.04688 0.043,-0.03516 -0.0117,-0.02734 z m 1.77734,1.148437 c -0.004,0.01563 0.0273,0.0625 0.0469,0.05078 0.0156,-0.01172 -0.0273,-0.04297 -0.0312,-0.09375 0,-0.0039 -0.0273,-0.02344 -0.0156,0.04297 z m -0.16797,-0.335937 c -0.0469,-0.132813 -0.0312,0.01563 -0.0195,0.03125 0.008,0.01953 0.0312,0.02734 0.0195,-0.03125 z m -5.67578,-0.355469 c -0.008,-0.01563 -0.0312,-0.02734 -0.0391,-0.01172 -0.0352,0.06641 0.0508,0.03516 0.0391,0.01172 z m 6.01563,2.136719 c -0.0312,-0.03906 -0.0859,0.05469 -0.0508,0.04297 0.0234,-0.0039 0.0469,-0.02734 0.0508,-0.04297 z m -0.1836,-2.136719 c 0.0273,-0.0039 0.0195,-0.05078 -0.0117,-0.05078 -0.0312,0.0039 -0.0195,0.05469 0.0117,0.05078 z m 0.0391,2.101563 c -0.008,-0.03125 -0.0508,0.01953 -0.0391,0.03125 0.008,0.01172 0.043,0.0078 0.0391,-0.03125 z m -5.19933,2.351562 c -0.0352,-0.06641 -0.0469,0 -0.004,0.01953 0.004,-0.0078 0.004,-0.01172 0.004,-0.01953 z m 4.42968,-0.292969 c -0.004,-0.01172 -0.0508,-0.04687 -0.0508,-0.02344 -0.004,0.04297 0.043,0.03516 0.0508,0.02344 z m -0.57422,1.113281 c -0.0312,-0.01562 -0.043,0.01953 -0.0391,0.03516 0.008,0.01953 0.0469,-0.0039 0.0391,-0.03516 z m 1.44141,-3.363281 c -0.0391,0.04297 0.0312,0.04297 0.0352,0.01953 0,-0.01953 -0.0234,-0.01953 -0.0352,-0.01953 z m -0.26562,-1.972656 c 0.0117,0.02344 -0.0273,0.04297 0.004,0.04687 0.0273,0.0039 0.0312,-0.05859 -0.004,-0.04687 z m 0.35546,2.078125 c 0.0586,-0.05469 -0.0156,-0.07031 -0.008,-0.0078 0,0.0078 0.004,0.01172 0.008,0.0078 z m -4.3164,3.484375 c 0,0.01953 0.0273,0.03125 0.0352,0.02734 0.008,-0.0078 -0.0117,-0.04687 -0.0352,-0.02734 z m 3.66797,-2.417969 c -0.0234,0.0078 -0.0156,0.03516 0.004,0.02734 0.0312,-0.01172 0.0195,-0.03516 -0.004,-0.02734 z m 0.16797,-3.203125 c 0.0195,-0.03906 -0.008,-0.03906 -0.0156,-0.03516 -0.0312,0.02344 -0.0117,0.03906 0.0156,0.03516 z m -2.94141,6.539063 c -0.0664,-0.05859 -0.043,-0.0039 -0.008,0.0078 0.008,0.0039 0.008,-0.0039 0.008,-0.0078 z m -1.14453,-0.996094 c -0.0352,-0.05078 -0.0352,0.02344 0,0.0078 0,0 0,-0.0039 0,-0.0078 z m 4.48437,-4.496094 c 0.0117,0.04687 0.0273,0.05078 0.008,-0.01563 -0.004,-0.0078 -0.0117,-0.01172 -0.008,0.01563 z m 0.0977,-0.554687 c -0.008,-0.01563 -0.0312,-0.0039 -0.0352,0.0039 0,0.0039 0.0195,0.02344 0.0352,-0.0039 z m -1.62109,5.125 c -0.008,-0.0039 -0.0156,-0.01953 -0.0312,0.0039 -0.0117,0.01563 0.0234,0.01953 0.0312,-0.0039 z m -1.89454,0.785156 c -0.0156,-0.03516 -0.0625,-0.04687 -0.008,0.0078 0.004,-0.0039 0.004,-0.0039 0.008,-0.0078 z m -0.0547,0.03125 c 0,0.01172 0.004,0.04687 0.0156,0.02734 0.0156,-0.01172 0.004,-0.01563 -0.0156,-0.02734 z m 1.87109,-0.789063 c -0.008,-0.0078 -0.008,-0.01953 -0.0195,0.0078 -0.004,0.0039 0.0195,0.01953 0.0195,-0.0078 z m -2.30469,0.226563 c -0.0117,-0.0078 -0.0312,-0.03125 -0.0312,-0.01172 0,0.01563 0.0117,0.03125 0.0312,0.01172 z m -0.23828,-0.01172 c 0,-0.01172 -0.0273,-0.02734 -0.0273,-0.01172 0,0.0078 0.0195,0.02734 0.0273,0.01172 z m 3.20313,-1.355468 c 0.043,-0.03125 0.0117,-0.02734 -0.0117,-0.0078 -0.004,0.0039 0.008,0.0078 0.0117,0.0078 z m 0.11718,-0.71875 c -0.008,-0.02344 -0.0234,-0.01172 -0.0234,-0.0078 0.0273,0.03125 0.0234,0.02344 0.0234,0.0078 z m 0.14454,-0.03906 c 0.008,-0.01563 0.0195,-0.03516 0.004,-0.03906 -0.0273,-0.0078 -0.008,0.03125 -0.004,0.03906 z m -0.004,-0.15625 c 0.0117,-0.0078 0.0234,-0.0078 -0.008,-0.01953 -0.0156,-0.0039 -0.0195,0.02344 0.008,0.01953 z m 0.33203,-0.875 c -0.0273,-0.01172 -0.0156,0.05469 -0.004,0.01563 0.004,-0.0039 0.004,-0.0078 0.004,-0.01563 z m 0.41406,-0.53125 c -0.0117,-0.02344 -0.0273,-0.0039 -0.0234,0.0078 0.004,0.0078 0.0156,0.01953 0.0234,-0.0078 z m -0.25,0.04297 c -0.0117,-0.01563 -0.0195,0 -0.0273,0.01563 0.008,0.0078 0.0195,0.0078 0.0273,-0.01563 z m -0.0352,-0.07422 c -0.008,0.0039 -0.0156,0.03906 -0.004,0.03516 0.0156,0 0.008,-0.02734 0.004,-0.03516 z m 0.32422,-0.125 c -0.008,-0.01563 -0.0273,-0.02344 -0.0195,0.01172 0.004,0.01563 0.0273,0.0039 0.0195,-0.01172 z m -6.16407,1.292969 c -0.0195,-0.01953 -0.0234,-0.01172 -0.0195,0.0078 0.004,0.01563 0.0195,0.01563 0.0195,-0.0078 z m 6.01563,-2.132813 c 0,-0.04297 -0.0195,-0.05469 -0.008,0 0,0 0.004,0 0.008,0 z m -3.00781,0.01563 c -0.0156,-0.0078 -0.0234,0.01172 -0.0195,0.02344 0,0.01172 0.0234,-0.0078 0.0195,-0.02344 z m 2.39453,-0.894531 c -0.0156,0.02734 0.0547,0.0078 0.0195,0 -0.008,0 -0.0117,0 -0.0195,0 z m -5.76172,0.976563 c 0.0117,0.01172 0.0234,0 0.0195,-0.01563 -0.004,-0.0039 -0.0156,-0.01172 -0.0195,0.01563 z m 4.70312,-1.671876 c -0.0273,0.0039 -0.0117,0.02734 0.004,0.02344 0.0117,-0.0039 0.0273,-0.02344 -0.004,-0.02344 z m -0.0234,-0.07031 c 0,0.0039 0.008,0.0078 0.008,0.0078 0.0234,-0.01953 0,-0.02734 -0.008,-0.0078 z m -1.61719,1.832031 c -0.004,0.01953 -0.008,0.01172 0.008,0.02734 0.004,-0.01953 0.008,-0.01563 -0.008,-0.02734 z m 3.45312,-0.820312 c 0.0156,-0.01563 0.0117,-0.01953 0,-0.01953 -0.008,0.0039 -0.004,0.01172 0,0.01953 z m -6.5039,2.210937 c -0.008,-0.01172 -0.0156,-0.0039 -0.0156,0.0039 0,0.01172 0.008,0 0.0156,-0.0039 z m 6.17968,-0.328125 c -0.008,0.0078 -0.0156,0.01172 0.004,0.02344 0.0117,0.0039 0.0195,-0.01953 -0.004,-0.02344 z m -0.0586,0.04687 c 0,-0.01172 -0.0156,-0.0039 -0.0156,0 0.008,0.01953 0.0117,0.01172 0.0156,0 z m -0.47266,1.164063 c 0.0117,-0.01172 -0.0234,-0.01563 -0.008,0.01172 0.004,-0.0039 0.004,-0.0078 0.008,-0.01172 z m -0.125,0.207031 c -0.008,0.01953 -0.0117,0.02344 0,0.02344 0.008,0 0.0195,-0.0078 0,-0.02344 z m -0.0312,0.273438 c 0.008,0.0078 0.0156,0.0039 0.0156,-0.0039 0.004,-0.0039 0,-0.01953 -0.0156,0.0039 z m -0.15234,0.101562 c -0.004,-0.0039 -0.0117,-0.01953 -0.0117,-0.0039 0.008,0.02344 0.008,0.01563 0.0117,0.0039 z m 0.125,0.101562 c -0.004,-0.01172 -0.0117,-0.0078 -0.0117,0 0,0.01563 0.008,0.0039 0.0117,0 z m -2.91797,1.546876 c -0.008,0.0078 0,0.01172 0.008,0.01562 0.004,0.0039 0.0156,-0.0039 -0.008,-0.01562 z m 2.62891,-0.582032 c -0.004,-0.0078 -0.0117,0 -0.0117,0.0039 -0.004,0.0039 0,0.01953 0.0117,-0.0039 z m -2.34766,1.140625 c -0.004,0 -0.008,-0.0039 -0.0117,-0.0039 -0.008,0.01563 0.0195,0.01953 0.0117,0.0039 z m 0,0"
     fill-opacity="1"
     fill-rule="nonzero"
     id="path418" />
  <path
     fill="#000000"
     d="m 89.963701,39.021609 c 0.0352,-0.02734 0.0117,-0.06641 0.0195,-0.09375 0.008,-0.02344 0.0586,-0.02344 0.043,0.01172 -0.0156,0.03516 0.004,0.03516 0.0234,0.03516 0.0352,-0.0039 0.0156,0.03906 -0.008,0.07422 -0.0312,0.0625 -0.0742,-0.03516 -0.0781,-0.02734 z m 0,0"
     fill-opacity="1"
     fill-rule="nonzero"
     id="path420" />
  <path
     fill="#000000"
     d="m 87.108231,41.642703 c 0.0586,-0.0078 0.0508,0.06641 0.10547,0.05469 0.0195,0 0.10547,0.04297 0.082,0.05859 -0.0352,0.01953 -0.0234,-0.01953 -0.15234,-0.04687 -0.0625,-0.01172 -0.0742,-0.0625 -0.0352,-0.06641 z m 0,0"
     fill-opacity="1"
     fill-rule="nonzero"
     id="path422" />
  <path
     fill="#000000"
     d="m 89.983231,34.670047 c 0.0312,-0.0039 0.0586,-0.0039 0.0742,0.01953 0.0273,0.03906 0.0703,0.05859 0.0898,0.101563 0.004,0.0078 -0.004,0.01953 -0.008,0.01562 -0.0664,-0.09375 -0.20703,-0.101562 -0.15625,-0.136718 z m 0,0"
     fill-opacity="1"
     fill-rule="nonzero"
     id="path424" />
  <path
     fill="#000000"
     d="m 85.334791,34.548953 c -0.0312,0.01172 -0.0742,0.01563 -0.11328,0.03516 -0.008,0.0078 -0.0195,0.01172 -0.0273,0.0039 0.0937,-0.101562 0.34765,-0.09375 0.14062,-0.03906 z m 0,0"
     fill-opacity="1"
     fill-rule="nonzero"
     id="path426" />
  <path
     fill="#000000"
     d="m 90.010571,39.279422 c 0.008,-0.09766 0.10547,-0.128907 0.0781,-0.08594 -0.0547,0.101563 -0.0898,0.07813 -0.0781,0.08594 z m 0,0"
     fill-opacity="1"
     fill-rule="nonzero"
     id="path428" />
  <path
     fill="#000000"
     d="m 90.291821,38.931765 c 0,0.0039 0,0.0078 0,0.0078 -0.0195,0.02344 -0.0312,0.05469 -0.0391,0.08203 -0.0156,0.04297 -0.0391,-0.140625 0.0391,-0.08984 z m 0,0"
     fill-opacity="1"
     fill-rule="nonzero"
     id="path430" />
  <path
     fill="#000000"
     d="m 90.901201,36.486453 c 0,0.121094 -0.0469,0.238281 -0.0156,-0.01563 0,-0.01172 0.0117,-0.0039 0.0156,0.01563 z m 0,0"
     fill-opacity="1"
     fill-rule="nonzero"
     id="path432" />
  <path
     fill="#000000"
     d="m 85.248851,39.607547 c -0.0117,0.07031 -0.0273,0.03906 -0.0547,-0.02344 -0.004,-0.01172 -0.004,-0.06641 0.0547,0.02344 z m 0,0"
     fill-opacity="1"
     fill-rule="nonzero"
     id="path434" />
  <path
     fill="#000000"
     d="m 85.901201,40.810672 c 0.0312,0 0.0781,0.04687 0.043,0.05469 -0.0391,0.0078 -0.0664,-0.02734 -0.043,-0.05469 z m 0,0"
     fill-opacity="1"
     fill-rule="nonzero"
     id="path436" />
  <path
     fill="#000000"
     d="m 90.701981,36.463015 c 0.008,-0.03125 0.008,-0.05469 0.0273,-0.05078 0.0117,0.0039 0.0352,0.03125 0.008,0.03906 -0.0352,0.01172 -0.043,0.0078 -0.0352,0.01172 z m 0,0"
     fill-opacity="1"
     fill-rule="nonzero"
     id="path438" />
  <path
     fill="#000000"
     d="m 86.100421,40.752078 c 0,0.03516 -0.004,0.03125 -0.043,0.01563 -0.0156,-0.0078 0.0195,-0.01563 0.0273,-0.01563 0.0117,0 0.0156,0.0078 0.0156,0 z m 0,0"
     fill-opacity="1"
     fill-rule="nonzero"
     id="path440" />
  <path
     fill="#000000"
     d="m 84.717601,38.580203 c 0.008,0.09375 -0.0547,0.02734 0,0 z m 0,0"
     fill-opacity="1"
     fill-rule="nonzero"
     id="path442" />
  <path
     fill="#000000"
     d="m 86.026201,40.763797 c -0.0117,0.04687 -0.0469,-0.01172 -0.0352,-0.02344 0.0117,-0.0078 0.0273,0.01172 0.0352,0.02344 z m 0,0"
     fill-opacity="1"
     fill-rule="nonzero"
     id="path444" />
  <path
     fill="#000000"
     d="m 90.819171,36.435672 c -0.0273,0 0.0117,-0.0625 0.0234,-0.04297 0.0156,0.02344 -0.0156,0.03516 -0.0234,0.04297 z m 0,0"
     fill-opacity="1"
     fill-rule="nonzero"
     id="path446" />
  <path
     fill="#000000"
     d="m 90.225421,38.209109 c 0.0312,-0.0039 0.0156,0.03516 0.0117,0.03906 -0.0156,0.0078 -0.0469,-0.02734 -0.0117,-0.03906 z m 0,0"
     fill-opacity="1"
     fill-rule="nonzero"
     id="path448" />
  <path
     fill="#000000"
     d="m 85.803541,40.630984 c 0.0234,0 0.0547,0.04297 0.0391,0.03516 -0.0195,-0.0039 -0.0469,-0.01563 -0.0391,-0.03516 z m 0,0"
     fill-opacity="1"
     fill-rule="nonzero"
     id="path450" />
  <path
     fill="#000000"
     d="m 89.987141,39.056765 c -0.004,0.05859 -0.0664,0.02344 0,0 z m 0,0"
     fill-opacity="1"
     fill-rule="nonzero"
     id="path452" />
  <path
     fill="#000000"
     d="m 85.354321,40.080203 c -0.0156,0 -0.043,-0.03125 -0.0352,-0.04687 0.008,-0.01563 0.0352,0.05078 0.0352,0.04687 z m 0,0"
     fill-opacity="1"
     fill-rule="nonzero"
     id="path454" />
  <path
     fill="#000000"
     d="m 90.268391,38.474734 c 0.008,0.03125 -0.0273,0.06641 -0.0156,0 0.004,-0.0078 0.008,-0.01172 0.0156,0 z m 0,0"
     fill-opacity="1"
     fill-rule="nonzero"
     id="path456" />
  <path
     fill="#000000"
     d="m 90.303541,37.916141 c 0.082,-0.01953 0.0273,0.02734 0.0156,0.01562 -0.0117,-0.01172 -0.0117,-0.02344 -0.0156,-0.01562 z m 0,0"
     fill-opacity="1"
     fill-rule="nonzero"
     id="path458" />
  <path
     fill="#000000"
     d="m 90.561351,37.666141 c -0.0156,0.05859 -0.043,-0.0078 -0.0117,-0.0078 0.004,0 0.008,0.0039 0.0117,0.0078 z m 0,0"
     fill-opacity="1"
     fill-rule="nonzero"
     id="path460" />
  <path
     fill="#000000"
     d="m 90.682451,35.806765 c 0.0234,-0.0039 0.0195,0.02344 0.004,0.02734 -0.0117,0.0039 -0.0352,-0.01563 -0.004,-0.02734 z m 0,0"
     fill-opacity="1"
     fill-rule="nonzero"
     id="path462" />
  <path
     fill="#000000"
     d="m 89.205891,40.767703 c 0.0547,-0.0078 0.0273,0.03516 0.004,0.02344 -0.0273,-0.01563 -0.0195,-0.01172 -0.004,-0.02344 z m 0,0"
     fill-opacity="1"
     fill-rule="nonzero"
     id="path464" />
  <path
     fill="#000000"
     d="m 86.194171,40.814578 c -0.0234,0.03125 -0.0469,-0.02344 -0.0234,-0.01563 0.008,0.0039 0.0156,0.0078 0.0234,0.01563 z m 0,0"
     fill-opacity="1"
     fill-rule="nonzero"
     id="path466" />
  <path
     fill="#000000"
     d="m 85.432451,40.170047 c -0.082,-0.01172 -0.0273,-0.08984 0,0 z m 0,0"
     fill-opacity="1"
     fill-rule="nonzero"
     id="path468" />
  <path
     fill="#000000"
     d="m 85.233231,39.834109 c -0.004,0.0078 -0.004,0.01953 -0.0156,-0.01172 0,-0.0039 -0.004,-0.02344 0.0156,0.01172 z m 0,0"
     fill-opacity="1"
     fill-rule="nonzero"
     id="path470" />
  <path
     fill="#000000"
     d="m 90.901201,36.334109 c 0.0195,0.105469 -0.0234,0.03906 0,0 z m 0,0"
     fill-opacity="1"
     fill-rule="nonzero"
     id="path472" />
  <path
     fill="#000000"
     d="m 84.178541,38.013797 c -0.008,0.01172 -0.0195,0 -0.0195,-0.0078 -0.008,-0.01563 0.0195,-0.0078 0.0195,0.0078 z m 0,0"
     fill-opacity="1"
     fill-rule="nonzero"
     id="path474" />
  <path
     fill="#000000"
     d="m 90.748851,36.216922 c 0.0156,-0.0039 0.0117,0.05469 0.004,0.01563 -0.004,-0.0078 -0.004,-0.01172 -0.004,-0.01563 z m 0,0"
     fill-opacity="1"
     fill-rule="nonzero"
     id="path476" />
  <path
     fill="#000000"
     d="m 90.760571,36.076297 c 0.004,0.02734 -0.0195,0.01953 -0.0195,0.01563 -0.004,-0.01953 0.004,-0.03906 0.0195,-0.01563 z m 0,0"
     fill-opacity="1"
     fill-rule="nonzero"
     id="path478" />
  <path
     fill="#000000"
     d="m 90.631671,35.763797 c 0.0156,0.0078 0.0156,0.03516 0,0.03125 -0.0117,-0.0039 -0.0195,-0.01172 0,-0.03125 z m 0,0"
     fill-opacity="1"
     fill-rule="nonzero"
     id="path480" />
  <path
     fill="#000000"
     d="m 84.076981,36.455203 c -0.004,0.01953 0,0.01563 -0.0195,0.01172 0.004,-0.01953 0,-0.01563 0.0195,-0.01172 z m 0,0"
     fill-opacity="1"
     fill-rule="nonzero"
     id="path482" />
  <path
     fill="#000000"
     d="m 88.401201,34.857547 c -0.008,-0.03906 0.0234,-0.03906 0.043,-0.05078 -0.004,-0.0039 -0.0469,0.04688 -0.043,0.05078 z m 0,0"
     fill-opacity="1"
     fill-rule="nonzero"
     id="path484" />
  <path
     fill="#000000"
     d="m 88.557451,34.560672 c 0.0234,0 0.0156,0.01953 0,0.02734 -0.0156,0.0039 -0.0312,-0.02344 0,-0.02734 z m 0,0"
     fill-opacity="1"
     fill-rule="nonzero"
     id="path486" />
  <path
     fill="#000000"
     d="m 84.369951,35.400515 c -0.008,0.03125 -0.082,0.01953 0,0 z m 0,0"
     fill-opacity="1"
     fill-rule="nonzero"
     id="path488" />
  <path
     fill="#000000"
     d="m 89.022291,34.459109 c 0.0195,0 0.008,0.01172 -0.004,0.01953 -0.008,-0.01563 -0.0117,-0.0078 0.004,-0.01953 z m 0,0"
     fill-opacity="1"
     fill-rule="nonzero"
     id="path490" />
  <path
     fill="#000000"
     d="m 84.225421,35.767703 c 0.0195,0.0039 0.004,0.01953 0,0.01953 -0.0117,0 -0.004,-0.01172 0,-0.01953 z m 0,0"
     fill-opacity="1"
     fill-rule="nonzero"
     id="path492" />
  <path
     fill="#000000"
     d="m 87.022291,35.431765 c 0,0.0039 -0.004,0.01563 -0.008,0 -0.004,-0.02344 0,-0.01172 0.008,0 z m 0,0"
     fill-opacity="1"
     fill-rule="nonzero"
     id="path494" />
  <path
     fill="#000000"
     d="m 87.057451,35.502078 c -0.004,0 -0.004,0.0039 -0.008,-0.01563 0.004,0 0.004,-0.0039 0.008,0.01563 z m 0,0"
     fill-opacity="1"
     fill-rule="nonzero"
     id="path496" />
  <path
     fill="#000000"
     d="m 90.713701,35.119265 c -0.0156,-0.0039 -0.0117,0 -0.0156,-0.0078 0.0195,-0.0039 0.0156,-0.0039 0.0156,0.0078 z m 0,0"
     fill-opacity="1"
     fill-rule="nonzero"
     id="path498" />
  <path
     fill="#000000"
     d="m 84.104321,37.728641 c -0.0117,-0.0078 -0.0117,0 -0.0117,-0.02734 0.0195,0.01172 0.0195,0.01953 0.0117,0.02734 z m 0,0"
     fill-opacity="1"
     fill-rule="nonzero"
     id="path500" />
  <path
     fill="#000000"
     d="m 84.826981,38.740359 c 0,-0.0039 -0.0156,-0.01953 0.004,-0.02344 0.0156,0 0.008,0.01172 -0.004,0.02344 z m 0,0"
     fill-opacity="1"
     fill-rule="nonzero"
     id="path502" />
  <path
     fill="#000000"
     d="m 84.924641,39.017703 c 0,0.01953 -0.0195,0.01563 -0.0195,0.01172 -0.004,-0.01172 0.004,-0.03125 0.0195,-0.01172 z m 0,0"
     fill-opacity="1"
     fill-rule="nonzero"
     id="path504" />
  <path
     fill="#000000"
     d="m 90.576981,37.963015 c 0,0 0.008,0 0.008,0 -0.004,0.02734 -0.0273,0.02344 -0.008,0 z m 0,0"
     fill-opacity="1"
     fill-rule="nonzero"
     id="path506" />
  <path
     fill="#000000"
     d="m 90.569171,38.029422 c -0.0156,0 -0.0117,-0.01172 -0.004,-0.01563 0.008,-0.0039 0.004,0.0078 0.004,0.01563 z m 0,0"
     fill-opacity="1"
     fill-rule="nonzero"
     id="path508" />
  <path
     fill="#000000"
     d="m 85.256671,39.681765 c -0.008,0.02734 -0.0117,0.02344 -0.0156,0.01563 -0.008,-0.01953 0.0117,-0.01563 0.0156,-0.01563 z m 0,0"
     fill-opacity="1"
     fill-rule="nonzero"
     id="path510" />
  <path
     fill="#000000"
     d="m 85.385571,40.130984 c -0.0352,-0.01563 -0.0391,-0.101562 0,0 z m 0,0"
     fill-opacity="1"
     fill-rule="nonzero"
     id="path512" />
  <path
     fill="#000000"
     d="m 89.963701,39.021609 c -0.0469,0.0078 -0.0195,-0.03516 -0.008,-0.01563 0.008,0.01172 0,0.02344 0.008,0.01563 z m 0,0"
     fill-opacity="1"
     fill-rule="nonzero"
     id="path514" />
  <path
     fill="#000000"
     d="m 88.928541,40.970828 c -0.0117,0.01953 -0.0195,0.0078 -0.0156,0.0039 0,-0.0078 0.008,-0.01172 0.0156,-0.0039 z m 0,0"
     fill-opacity="1"
     fill-rule="nonzero"
     id="path516" />
  <path
     fill="#000000"
     d="m 86.975421,41.123172 c 0.0586,0.152343 0.11718,0.238281 -0.0781,0.01953 -0.0156,-0.01953 -0.004,-0.03906 0.0156,-0.02734 0.0195,0.01563 0.0391,0.02344 0.0625,0.0078 z m 0,0"
     fill-opacity="1"
     fill-rule="nonzero"
     id="path518" />
  <path
     fill="#000000"
     d="m 86.838701,41.072391 c 0.0156,0.03906 -0.0156,0.03906 -0.0234,-0.03125 -0.008,-0.03906 0.0273,0.02344 0.0234,0.03125 z m 0,0"
     fill-opacity="1"
     fill-rule="nonzero"
     id="path520" />
  <path
     fill="#000000"
     d="m 87.057451,41.197391 c -0.0117,-0.01563 -0.0117,-0.0078 -0.004,-0.02734 0.0117,0.01563 0.008,0.0078 0.004,0.02734 z m 0,0"
     fill-opacity="1"
     fill-rule="nonzero"
     id="path522" />
  <path
     fill="#000000"
     d="m 89.182451,40.541141 c 0.008,-0.02344 0.0156,-0.04688 0.043,-0.05078 -0.004,0.02734 -0.0195,0.03906 -0.043,0.05078 z m 0,0"
     fill-opacity="1"
     fill-rule="nonzero"
     id="path524" />
  <g
     fill="#000000"
     fill-opacity="1"
     id="g532"
     transform="translate(-45.048019,-16.419797)">
    <g
       transform="translate(103.6566,111.83302)"
       id="g530">
      <g
         id="g528">
        <path
           d="m 11.875,-20.914062 c 0.167969,1.613281 1.367188,5.5625 1.628906,8.09375 0.496094,4.722656 0.25,8.792968 -0.292968,13.363281 -0.128907,1 -1.234376,10.199219 -2.757813,10.355469 C 9.5,11 8.21875,5.953125 7.980469,5.074219 7.515625,3.144531 7.226562,1.488281 6.859375,-0.105469 L 5.261719,-9.25 c -0.125,-1.210938 -1.070313,-5.796875 -1.894531,-6.46875 -0.191407,-0.125 -0.398438,-0.191406 -0.574219,-0.171875 -0.257813,0.02734 -0.53125,0.199219 -0.679688,0.449219 -0.878906,1.34375 -1.792969,12.671875 -1.875,14.660156 C 0.152344,2.3125 0.183594,8.449219 0.65625,11.3125 l 0.359375,2.058594 c 0.117187,0.539062 0.167969,0.765625 0.628906,0.71875 C 2.25,14.027344 1.714844,12.511719 1.597656,11.386719 1.222656,7.816406 1.234375,6.535156 1.191406,3.046875 1.101562,-0.609375 1.796875,-8.976562 2.480469,-12.773438 c 0.066406,-0.472656 0.195312,-0.921874 0.261719,-1.394531 0.433593,0.273438 1.089843,4.601563 1.148437,5.148438 0.046875,0.460937 0.113281,0.539062 0.179687,0.882812 0.035157,0.34375 0.039063,0.664063 0.105469,1.007813 0.257813,1.078125 0.429688,2.457031 0.640625,3.65625 0.472656,2.542968 2.941406,15.613281 5.5625,15.339844 l 0.34375,-0.03516 c 1.007813,-0.105466 1.640625,-2.12109 1.898438,-2.992184 1.234375,-4.347656 2.203125,-13.210938 2.066406,-17.851563 l -0.136719,-2.433593 c -0.01953,-0.460938 0.05469,-0.585938 -0.09375,-1.183594 -0.101562,-0.394532 -0.105469,-0.714844 -0.148437,-1.148438 -0.05469,-0.515625 -0.167969,-0.765625 -0.242188,-1.195312 -0.117187,-0.859375 -0.796875,-3.4375 -1.042968,-4.402344 -0.105469,-0.453125 -0.152344,-0.652344 -0.226563,-1.082031 -0.09375,-0.339844 -0.09375,-0.894531 -0.527344,-0.847657 -0.171875,0.01953 -0.40625,0.273438 -0.394531,0.390626 z m 0,0"
           id="path526" />
      </g>
    </g>
  </g>
  <g
     fill="#000000"
     fill-opacity="1"
     id="g540"
     transform="translate(-45.048019,-16.419797)">
    <g
       transform="translate(120.23794,110.10232)"
       id="g538">
      <g
         id="g536">
        <path
           d="m 1.371094,-0.8125 c -0.773438,-1.257812 0.28125,-3.988281 0.394531,-4.84375 1.078125,0.558594 0.753906,4.402344 -0.394531,4.84375 z m -1.542969,-0.828125 c 0.15625,1.496094 0.867187,2.179687 1.617187,2.101563 C 2.308594,0.371094 3.269531,-0.75 3.492188,-2.78125 3.816406,-5.8125 2.382812,-6.15625 2.183594,-6.6875 c 0.121094,-0.246094 0.359375,-0.445312 0.425781,-0.65625 0.0625,-0.242188 -0.160156,-0.683594 -0.53125,-0.644531 -1.414063,0.148437 -2.382813,5.050781 -2.25,6.347656 z m 0,0"
           id="path534" />
      </g>
    </g>
  </g>
  <g
     fill="#000000"
     fill-opacity="1"
     id="g548"
     transform="translate(-45.048019,-16.419797)">
    <g
       transform="translate(125.30447,109.57349)"
       id="g546">
      <g
         id="g544">
        <path
           d="m -0.296875,-3.140625 c 0.101563,0.976563 0.128906,2.632813 0.953125,3.277344 0.285156,0.230469 0.554688,0.320312 0.816406,0.292969 1.554688,-0.164063 2.832032,-4.371094 3.164063,-5.367188 0.222656,-0.664062 1,-2.695312 0.25,-2.617188 C 4.339844,-7.496094 4.195312,-6.375 3.964844,-5.796875 3.605469,-4.769531 2.507812,-1.078125 1.386719,-0.667969 0.839844,-2.269531 0.980469,-3.421875 1.09375,-5.148438 1.140625,-6.347656 1.464844,-7.429688 1.078125,-8.058594 0.875,-8.066406 0.871094,-8.125 0.609375,-8.097656 c -0.863281,0.089844 -1.03125,3.777344 -0.90625,4.957031 z m 0,0"
           id="path542" />
      </g>
    </g>
  </g>
  <g
     fill="#000000"
     fill-opacity="1"
     id="g556"
     transform="translate(-45.048019,-16.419797)">
    <g
       transform="translate(131.49368,108.92749)"
       id="g554">
      <g
         id="g552">
        <path
           d="m 1.371094,-0.8125 c -0.773438,-1.257812 0.28125,-3.988281 0.394531,-4.84375 1.078125,0.558594 0.753906,4.402344 -0.394531,4.84375 z m -1.542969,-0.828125 c 0.15625,1.496094 0.867187,2.179687 1.617187,2.101563 C 2.308594,0.371094 3.269531,-0.75 3.492188,-2.78125 3.816406,-5.8125 2.382812,-6.15625 2.183594,-6.6875 c 0.121094,-0.246094 0.359375,-0.445312 0.425781,-0.65625 0.0625,-0.242188 -0.160156,-0.683594 -0.53125,-0.644531 -1.414063,0.148437 -2.382813,5.050781 -2.25,6.347656 z m 0,0"
           id="path550" />
      </g>
    </g>
  </g>
  <g
     fill="#000000"
     fill-opacity="1"
     id="g564"
     transform="translate(-45.048019,-16.419797)">
    <g
       transform="translate(136.56021,108.39866)"
       id="g562">
      <g
         id="g560">
        <path
           d="m -9.429688,-11.996094 c 0.042969,0.402344 0.339844,0.460938 0.65625,0.425782 0.171876,-0.01953 0.339844,-0.06641 0.480469,-0.109376 0.203125,-0.574218 -0.074219,-0.429687 0.617188,-0.789062 0.332031,-0.183594 0.570312,-0.410156 0.898437,-0.589844 1.714844,-0.878906 3.304688,-1.539062 5.15625,-2.199218 0.277344,-0.113282 0.929688,-0.300782 1.09375,-0.375 l 0.023438,2.703124 c 0.007812,0.378907 0.046875,1.015626 0.027344,1.394532 -0.054688,0.851562 0.320312,4.742187 0.4335932,5.835937 l 0.0546876,1.359375 C 0.230469,-2.234375 0.503906,1.199219 0.894531,3.253906 0.964844,3.945312 1.101562,4.976562 1.851562,4.898438 2.597656,4.820312 1.960938,2.878906 1.890625,2.21875 1.699219,0.957031 1.128906,-4.804688 1.125,-5.675781 1.121094,-6.285156 0.925781,-7.578125 0.839844,-8.410156 0.796875,-8.816406 0.882812,-8.824219 0.84375,-9.199219 0.8125,-9.484375 0.75,-9.828125 0.75,-10.089844 l -0.039062,-5.964844 c 0.675781,-0.214843 4.964843,-1.507812 6.546874,-1.671874 0.203126,-0.01953 0.347657,-0.03516 0.464844,-0.01953 0.355469,0.05078 0.257813,-0.05469 0.375,0.222656 1.09375,-0.113281 0.625,-1.226562 -0.726562,-1.085937 -1.757813,0.183594 -3.425782,0.648437 -5.0625,1.136719 -0.425782,0.105468 -1.011719,0.339844 -1.472656,0.386718 -0.097657,-0.917968 0.558593,-0.230468 0.480468,-0.980468 -0.019531,-0.171875 -0.058594,-0.285156 -0.070312,-0.371094 -0.058594,-0.285156 0.023437,-0.05859 -0.011719,-0.40625 -0.046875,-0.460938 -0.316406,-0.808594 -0.632813,-0.777344 -0.375,0.03906 -0.78125,0.605469 -0.90625,2.191406 -0.101562,1 -0.042968,0.730469 -1.21875,1.171876 -1.589843,0.632812 -8.042968,2.964843 -7.90625,4.261718 z m 0,0"
           id="path558" />
      </g>
    </g>
  </g>
  <g
     fill="#000000"
     fill-opacity="1"
     id="g572"
     transform="translate(-45.048019,-16.419797)">
    <g
       transform="translate(139.89951,108.05012)"
       id="g570">
      <g
         id="g568">
        <path
           d="m 0.648438,-1.582031 c 1.125,-0.117188 1.890624,-3.921875 2.773437,-4.65625 0.316406,0.523437 0.035156,1.714843 0.792969,3.382812 0.339844,0.75 0.910156,1.476563 1.800781,1.382813 0.171875,-0.015625 0.34375,-0.0625 0.539063,-0.144532 C 7.199219,-1.855469 8,-3.105469 8.347656,-3.664062 c 0.148438,-0.25 1.625,-2.558594 0.503906,-2.441407 -0.519531,0.054688 -1.6875,3.640625 -2.839843,3.761719 -1.0625,0.109375 -1.390625,-2.445312 -1.464844,-3.167969 L 4.207031,-7.105469 C 4.03125,-7.40625 3.8125,-7.527344 3.609375,-7.507812 2.921875,-7.433594 2.210938,-5.878906 2.070312,-5.542969 L 0.90625,-3.296875 C 0.671875,-5.542969 2.261719,-8.445312 0.996094,-8.3125 c -1.0937502,0.117188 -2.1875,6.921875 -0.347656,6.730469 z m 0,0"
           id="path566" />
      </g>
    </g>
  </g>
  <g
     fill="#000000"
     fill-opacity="1"
     id="g580"
     transform="translate(-45.048019,-16.419797)">
    <g
       transform="translate(148.53563,107.14871)"
       id="g578">
      <g
         id="g576">
        <path
           d="m -0.304688,-2.90625 c 0.109376,1.035156 0.2460942,1.515625 1.3125,1.402344 0.835938,-0.085938 1.445313,-2.886719 1.953126,-3.316406 0.128906,1.238281 1.207031,2.640624 2.644531,2.488281 0.492187,-0.050781 1.019531,-0.28125 1.554687,-0.742188 l 0.789063,-0.78125 c 1.324219,-1.566406 1.074219,-2.265625 0.644531,-2.222656 -0.175781,0.019531 -0.367188,0.125 -0.488281,0.34375 C 7.746094,-5.261719 7.6875,-4.992188 7.191406,-4.445312 6.625,-3.746094 6.054688,-3.339844 5.507812,-3.28125 4.902344,-3.21875 4.335938,-3.625 4,-4.636719 3.625,-5.703125 3.980469,-7.050781 2.972656,-6.945312 c -0.375,0.039062 -1.300781,2.609374 -1.785156,3.5625 l -0.191406,0.367187 c -0.125,0.1875 -0.050782,0.066406 -0.128906,0.160156 -0.101563,-0.949219 0.1875,-2.085937 0.5,-2.730469 0.683593,-1.527343 1.21875,-1.988281 1.648437,-2.035156 0.546875,-0.054687 0.964844,0.570313 1.367187,0.527344 0.746094,-0.078125 -0.171874,-1.640625 -1.523437,-1.5 -2.015625,0.210938 -3.335937,4.042969 -3.164063,5.6875 z m 4.691407,-9.425781 c 0.078125,0.71875 -0.75,2 -1.152344,2.59375 -0.128906,0.160156 -0.34375,0.617187 -0.691406,0.652343 C 2.429688,-9.074219 2.3125,-9.089844 2.183594,-9.191406 1.742188,-9.523438 2.136719,-10.207031 2.3125,-10.484375 c 0.460938,-0.863281 0.695312,-2.257813 1.558594,-2.347656 0.230468,-0.02344 0.492187,0.269531 0.515625,0.5 z m 0,0"
           id="path574" />
      </g>
    </g>
  </g>
  <g
     fill="#000000"
     fill-opacity="1"
     id="g588"
     transform="translate(-45.048019,-16.419797)">
    <g
       transform="translate(267.3865,99.454747)"
       id="g586">
      <g
         id="g584">
        <path
           d="M 13.691406,2.90625 C 13.367188,2.882812 13.296875,2.746094 13.046875,2.566406 11.085938,1.375 8.871094,1.34375 6.742188,1.566406 5.992188,1.644531 5.277344,1.75 4.558594,1.851562 3.839844,1.925781 2.992188,2.191406 2.300781,2.261719 2.257812,1.832031 2.304688,1.710938 2.25,1.191406 2.222656,0.671875 2.277344,0.636719 2.597656,0.339844 c 2.34375,-2.078125 6.425782,-4.511719 9.359375,-5.691406 0.503907,-0.167969 1.417969,-0.613282 1.9375,-0.667969 l -0.214843,6.601562 c -0.03516,0.757813 -0.07031,1.546875 0.01172,2.324219 z m 0.296875,-9.984375 C 6.765625,-4.605469 2.601562,-0.738281 2.265625,-0.613281 2.082031,-2.34375 2.25,-4.105469 2.222656,-5.761719 2.140625,-8.75 2.394531,-15.53125 2.609375,-18.492188 c 0.039063,-0.46875 0.335937,-3.207031 -0.289063,-3.609374 -0.125,-0.07422 -0.242187,-0.08984 -0.300781,-0.08203 -0.140625,0.01172 -0.1875,0.132813 -0.1875,0.132813 -0.382812,0.246093 -0.222656,0.113281 -0.359375,1.289062 -0.445312,4.675781 -0.65625,9.355469 -0.777344,14.023438 l 0.023438,3.316406 c 0.113281,1.09375 0.027344,2.207031 0.082031,3.28125 0.050781,0.777344 0.152344,0.914063 -0.257812,1.421875 -0.722657,0.890625 -0.808594,2.035156 0.324219,2.003906 0.160156,1.554688 0.03125,3.375 0.140624,4.410156 0.183594,1.757813 0.242188,3.730469 0.46875,5.886719 0.035157,0.347657 0.3125,0.753907 0.628907,0.722657 C 2.910156,14.21875 2.675781,13.632812 2.625,12.882812 L 2.503906,8.9375 C 2.441406,8.332031 2.398438,7.636719 2.414062,6.964844 L 2.398438,3.183594 C 2.578125,2.960938 6.75,2.496094 7.671875,2.402344 c 1.902344,-0.199219 3.839844,0.238281 4.96875,1.023437 1.0625,0.703125 0.914063,0.660157 1,2.078125 0.08594,1.359375 0.02734,2.207032 0.195313,3.820313 0.03906,0.347656 0.332031,0.664062 0.679687,0.628906 0.285156,-0.03125 0.601563,-0.355469 0.738281,-1.269531 0.1875,-1.273438 0.140625,-1.441406 0.01172,-2.679688 C 15.105469,4.476562 14.71875,5.769531 14.863281,2.988281 l 0.402344,-9.53125 2.421875,-0.773437 c 1.503906,-0.390625 3.417969,-1 5.003906,-1.164063 0.02734,-0.00391 0.08594,-0.00781 0.140625,-0.015625 0.203125,-0.019531 0.40625,-0.011718 0.582031,-0.03125 0.257813,-0.027344 0.480469,-0.109375 0.480469,-0.398437 0.03516,-0.5 -0.644531,-0.601563 -1.539062,-0.507813 -1.8125,0.1875 -4.652344,1.152344 -5.242188,1.332032 -0.371093,0.097656 -1.472656,0.414062 -1.746093,0.558593 -0.05859,-2.496093 1.089843,-11.578125 1.480468,-14.238281 0.195313,-1.214844 0.421875,-1.53125 0.152344,-2.433594 -0.175781,-0.01172 -0.320312,-0.02344 -0.464844,-0.0078 -0.460937,0.04687 -0.421875,0.421875 -0.695312,1.703125 -0.699219,3.070312 -1.449219,9.8125 -1.714844,13.128906 -0.03516,0.761719 -0.06641,1.578125 -0.136719,2.3125 z m 0,0"
           id="path582" />
      </g>
    </g>
  </g>
  <g
     fill="#000000"
     fill-opacity="1"
     id="g596"
     transform="translate(-45.048019,-16.419797)">
    <g
       transform="translate(290.301,97.063015)"
       id="g594">
      <g
         id="g592">
        <path
           d="m -0.335938,-3.515625 c 0.101563,0.980469 0.105469,2.40625 1.429688,2.265625 0.890625,-0.09375 2.015625,-2.421875 2.390625,-3.277344 0.140625,-0.332031 0.476563,-1.039062 0.691406,-1.207031 0.144531,1.382813 0.507813,3.761719 2.40625,3.5625 0.867188,-0.089844 1.753907,-0.792969 2.453125,-1.59375 0.3125,-0.355469 1.523438,-1.585937 1.472656,-2.074219 -0.03125,-0.316406 -0.269531,-0.351562 -0.5,-0.328125 -0.546874,0.058594 -2.167968,2.933594 -3.433593,3.066407 -0.546875,0.058593 -1.03125,-0.386719 -1.347657,-1.75 C 5.0625,-5.59375 5.238281,-7.53125 4.460938,-7.449219 3.914062,-7.394531 3.789062,-6.914062 3.472656,-6.328125 L 2.007812,-3.613281 C 1.761719,-3.210938 1.5,-2.628906 1.054688,-2.4375 0.421875,-4.324219 1.863281,-7.527344 1.851562,-7.644531 1.824219,-7.902344 1.738281,-7.894531 1.6875,-8.09375 1.472656,-8.1875 1.296875,-8.199219 1.152344,-8.183594 c -0.226563,0.023438 -0.417969,0.160156 -0.59375,0.414063 -0.6250002,0.996093 -1.027344,3.015625 -0.894532,4.253906 z m 0,0"
           id="path590" />
      </g>
    </g>
  </g>
  <g
     fill="#000000"
     fill-opacity="1"
     id="g604"
     transform="translate(-45.048019,-16.419797)">
    <g
       transform="translate(300.03103,96.04743)"
       id="g602">
      <g
         id="g600">
        <path
           d="m 1.695312,3.402344 c -1.5,0.15625 0.03125,-1.632813 0.972657,-2.371094 0.375,-0.300781 1.949219,-1.398438 2.3125,-1.550781 C 4.425781,0.847656 3.421875,3.222656 1.695312,3.402344 Z M 0.214844,-1.855469 c 0.082031,0.804688 0.066406,2.03125 0.84375,1.949219 0.546875,-0.0585938 0.710937,-2.664062 1.964844,-4.570312 0.507812,-0.722657 0.9375,-1.058594 1.285156,-1.09375 0.863281,-0.09375 1.265625,1.523437 1.0625,3.207031 C 5.296875,-1.6875 5.253906,-1.800781 4.734375,-1.484375 3.394531,-0.644531 -0.0195312,1.488281 0.15625,3.15625 0.246094,4.046875 0.949219,4.355469 1.753906,4.269531 2.417969,4.199219 3.140625,3.890625 3.734375,3.421875 5.730469,1.90625 6.144531,-0.816406 6.332031,-1.242188 c 0.121094,-0.246093 2.027344,-1.492187 2.878907,-2.25 0.417968,-0.453124 0.847656,-0.816406 1.230468,-1.324218 C 10.550781,-4.886719 11.804688,-6.238281 10.625,-6.113281 10.421875,-6.09375 9.230469,-4.71875 8.75,-4.289062 7.792969,-3.433594 7.570312,-3.320312 6.535156,-2.632812 6.445312,-3.496094 6.6875,-4.511719 5.894531,-5.707031 5.449219,-6.332031 4.898438,-6.59375 4.324219,-6.535156 c -0.75,0.078125 -1.5,0.679687 -2.019531,1.578125 -0.226563,0.316406 -0.425782,0.65625 -0.558594,1.050781 L 1.21875,-2.804688 c -0.242188,-2.332031 -0.082031,-8.605468 0.304688,-11.035156 0.00391,-0.261718 0.105468,-0.679687 0.09375,-0.765625 0.00781,-0.203125 -0.199219,-0.53125 -0.457032,-0.503906 -0.230468,0.02344 -0.496094,0.285156 -0.703125,1.089844 -0.78125,2.820312 -0.5429685,9.285156 -0.242187,12.164062 z m 0,0"
           id="path598" />
      </g>
    </g>
  </g>
  <g
     fill="#000000"
     fill-opacity="1"
     id="g612"
     transform="translate(-45.048019,-16.419797)">
    <g
       transform="translate(310.25044,94.980765)"
       id="g610">
      <g
         id="g608">
        <path
           d="m -0.304688,-2.90625 c 0.109376,1.035156 0.2460942,1.515625 1.3125,1.402344 0.835938,-0.085938 1.445313,-2.886719 1.953126,-3.316406 0.128906,1.238281 1.207031,2.640624 2.644531,2.488281 0.492187,-0.050781 1.019531,-0.28125 1.554687,-0.742188 l 0.789063,-0.78125 c 1.324219,-1.566406 1.074219,-2.265625 0.644531,-2.222656 -0.175781,0.019531 -0.367188,0.125 -0.488281,0.34375 C 7.746094,-5.261719 7.6875,-4.992188 7.191406,-4.445312 6.625,-3.746094 6.054688,-3.339844 5.507812,-3.28125 4.902344,-3.21875 4.335938,-3.625 4,-4.636719 3.625,-5.703125 3.980469,-7.050781 2.972656,-6.945312 c -0.375,0.039062 -1.300781,2.609374 -1.785156,3.5625 l -0.191406,0.367187 c -0.125,0.1875 -0.050782,0.066406 -0.128906,0.160156 -0.101563,-0.949219 0.1875,-2.085937 0.5,-2.730469 0.683593,-1.527343 1.21875,-1.988281 1.648437,-2.035156 0.546875,-0.054687 0.964844,0.570313 1.367187,0.527344 0.746094,-0.078125 -0.171874,-1.640625 -1.523437,-1.5 -2.015625,0.210938 -3.335937,4.042969 -3.164063,5.6875 z m 4.691407,-9.425781 c 0.078125,0.71875 -0.75,2 -1.152344,2.59375 -0.128906,0.160156 -0.34375,0.617187 -0.691406,0.652343 C 2.429688,-9.074219 2.3125,-9.089844 2.183594,-9.191406 1.742188,-9.523438 2.136719,-10.207031 2.3125,-10.484375 c 0.460938,-0.863281 0.695312,-2.257813 1.558594,-2.347656 0.230468,-0.02344 0.492187,0.269531 0.515625,0.5 z m 0,0"
           id="path606" />
      </g>
    </g>
  </g>
  <g
     fill="#000000"
     fill-opacity="1"
     id="g620"
     transform="translate(-45.048019,-16.419797)">
    <g
       transform="translate(318.59869,94.109406)"
       id="g618">
      <g
         id="g616">
        <path
           d="m -0.171875,-2.222656 c 0.1953125,1.871094 0.621094,5.40625 2.175781,5.246094 0.71875,-0.078126 1.152344,-1.226563 1.417969,-1.75 0.523437,-1.132813 1.089844,-3.230469 1.5625,-4.53125 0.117187,-0.300782 0.835937,-2.066407 0.816406,-2.238282 -0.015625,-0.144531 -0.148437,-0.304687 -0.292969,-0.289062 -0.144531,0.015625 -0.304687,0.148437 -0.441406,0.511718 -0.75,1.738282 -1.375,3.839844 -2.0625,5.601563 -0.25,0.695313 -0.570312,1.511719 -1.167968,1.925781 -1.554688,-2.3398435 -0.875,-11.464844 -0.375,-14.457031 0.058593,-0.296875 0.632812,-2.042969 -0.316407,-1.945313 -0.75,0.07813 -0.859375,1.546876 -1.03125,2.40625 -0.441406,2.726563 -0.585937,6.667969 -0.285156,9.519532 z m 0,0"
           id="path614" />
      </g>
    </g>
  </g>
  <g
     fill="#000000"
     fill-opacity="1"
     id="g628"
     transform="translate(-45.048019,-16.419797)">
    <g
       transform="translate(323.66521,93.58058)"
       id="g626">
      <g
         id="g624">
        <path
           d="m 0.78125,-5.347656 c 0.125,-0.742188 0.957031,-1.964844 1.722656,-2.191406 0.00781,0.933593 -1.042968,1.738281 -1.722656,2.191406 z m -1.222656,0.824218 c 0.082031,0.804688 0.128906,1.527344 0.890625,2.148438 0.542969,0.4375 1.140625,0.578125 1.742187,0.515625 1.757813,-0.183594 3.5625,-2.144531 4.515625,-3.324219 0.226563,-0.34375 0.222657,-0.371094 0.089844,-0.792968 C 5.933594,-5.886719 6.40625,-5.820312 5.324219,-4.777344 5.136719,-4.609375 5.0625,-4.488281 4.847656,-4.289062 4.320312,-3.796875 3.195312,-2.835938 2.1875,-2.730469 1.84375,-2.695312 1.484375,-2.773438 1.199219,-3.007812 0.660156,-3.445312 0.667969,-3.910156 0.605469,-4.515625 1.492188,-4.667969 2.441406,-5.609375 2.847656,-6.175781 3.625,-7.390625 3.503906,-8.542969 2.234375,-8.410156 0.855469,-8.269531 -0.59375,-5.960938 -0.441406,-4.523438 Z m 0,0"
           id="path622" />
      </g>
    </g>
  </g>
  <g
     fill="#000000"
     fill-opacity="1"
     id="g636"
     transform="translate(-45.048019,-16.419797)">
    <g
       transform="translate(329.91201,92.928562)"
       id="g634">
      <g
         id="g632">
        <path
           d="M -0.226562,-2.1875 0.0273438,0.257812 C 0.0859375,0.804688 0.152344,0.886719 0.222656,1.316406 0.355469,2.027344 0.199219,3.035156 0.976562,2.953125 1.554688,2.894531 1.554688,1.234375 1.855469,-0.078125 L 2.832031,-2.972656 C 3.289062,-1.683594 3.628906,-0.378906 4.191406,0.84375 4.496094,1.511719 4.949219,2.800781 5.703125,3.070312 5.792969,3.089844 5.882812,3.109375 5.941406,3.105469 6.171875,3.082031 6.292969,2.863281 6.421875,2.675781 6.296875,2.3125 6.007812,2.078125 5.644531,1.390625 5.09375,0.285156 4.222656,-2.214844 3.980469,-3.414062 3.636719,-5.035156 3.609375,-5.003906 4.039062,-5.921875 4.160156,-6.167969 4.28125,-6.382812 4.402344,-6.628906 c 0.6875,-1.5 1.738281,-2.570313 0.5,-2.441406 -0.949219,0.101562 -3.714844,7.898437 -3.871094,8.089843 -0.425781,-4.089843 -0.5,-9.816406 -0.167969,-14.15625 0.097657,-1.320312 0.539063,-2.386719 -0.585937,-2.269531 -1.007813,0.105469 -0.964844,6.359375 -0.980469,7.03125 0.035156,2.585938 0.1875,5.421875 0.476563,8.1875 z m 0,0"
           id="path630" />
      </g>
    </g>
  </g>
</svg>
